ply
format ascii 1.0
element vertex 3049
property float x
property float y
property float z
end_header
50 -52.5 -120.5
50 -52.5 -119.6
48.5 -40 -119.6
45.5 -24.5 -118.6
45.5 -24.5 -118.6
40 -4 -116.7
40 -4 -116.7
43 8.5 -115.7
43 8.5 -115.7
39 22.5 -115.7
39 22.5 -115.7
36 36 -112.7
36 36 -112.7
32.5 48.5 -111.7
32.5 48.5 -111.7
29 60.5 -109.6
29 60.5 -109.6
25.5 70.5 -107.5
25.5 70.5 -107.5
23.5 78.5 -106.4
23.5 78.5 -105.3
23.5 78.5 -105.3
21 85.5 -106.4
21 85.5 -106.4
18.5 92.5 -103.1
15.5 99.5 -103.1
15.5 99.5 -103.1
12 106.5 0
12 106.5 0
10 114 0
10 114 0
7.5 121 0
7.5 121 -98.5
4.5 128 0
4.5 128 0
0.5 133 0
0.5 133 2.25
-2.5 139 4.65
-2.5 139 4.65
-7.5 143 -155.1
-7.5 143 -155.7
-10 147 -156.9
-10 147 -156.9
-14.5 151 -155.7
-14.5 151 -154.5
-14.5 151 0
-18.5 153 0
-18.5 153 4.65
-22.5 154.5 4.65
-22.5 154.5 4.65
-26.5 153.5 7.1
-30.5 151.5 7.1
-30.5 151.5 7.1
-35.5 148 4.65
-35.5 148 4.65
-40 144 4.65
-40 144 4.65
-44.5 139.5 4.65
-44.5 139.5 4.65
-49 134 7.1
-49 134 4.65
-54.5 129.5 7.1
-54.5 129.5 7.1
-61.5 123.5 7.1
-61.5 123.5 7.1
-71 119.5 4.65
-71 119.5 4.65
-83 116.5 7.1
-83 116.5 7.1
-83 116.5 7.1
-97 114.5 9.6
-97 114.5 9.6
-112.5 111.5 7.1
-112.5 111.5 7.1
-123.5 106.5 9.6
-131.5 101 9.6
-131.5 101 9.6
-135.5 95 9.6
-135.5 95 9.6
-137.5 88 9.6
-137.5 88 9.6
-137.5 81 7.1
-137.5 81 7.1
-135 73.5 9.6
-135 73.5 9.6
-130.5 67 7.1
-130.5 67 7.1
-124 61.5 7.1
-124 61.5 7.1
-116.5 58 7.1
-116.5 58 7.1
-107 57 7.1
-107 57 4.65
-107 57 4.65
-98.5 57.5 9.6
-98.5 57.5 9.6
-88 59.5 7.1
-78.5 63.5 4.65
-78.5 63.5 4.65
-70 69.5 7.1
-70 69.5 7.1
-60 78 7.1
-60 78 4.65
-50 87 0
-50 87 0
-38.5 96.5 0
-38.5 96.5 0
-26 104 0
-26 104 0
-14.5 109.5 -155.7
-14.5 109.5 -156.9
-2.5 113 -159.3
-2.5 113 4.65
7.5 115 0
7.5 115 0
18 117 -107.5
18 117 -107.5
18 117 -107.5
26.5 118 -111.7
26.5 118 -109.6
36 118.5 -112.7
43.5 118 -112.7
43.5 118 -112.7
51.5 117 -112.7
51.5 117 -112.7
58.5 115 -111.7
58.5 115 -111.7
64.5 112 23.15
64.5 112 23.15
70.5 107 20.3
70.5 107 20.3
75.5 100.5 23.15
75.5 100.5 23.15
79.5 93.5 20.3
79.5 93.5 23.15
82.5 84.5 23.15
82.5 84.5 20.3
84.5 74.5 -108.5
84.5 74.5 -108.5
85.5 64.5 -109.6
85.5 64.5 -109.6
85.5 64.5 -109.6
84.5 54 -111.7
84.5 54 -111.7
82 44 -112.7
77.5 34 -113.7
77.5 34 -113.7
71 24.5 -115.7
71 24.5 -115.7
63.5 17 -115.7
63.5 17 -115.7
55 11 -115.7
55 11 -115.7
47 6 -116.7
47 6 -116.7
38.5 2.5 -115.7
38.5 2.5 -115.7
29.5 0 -115.7
29.5 0 -115.7
20 -0.5 -106.4
20 -0.5 -106.4
9 -1 -131
9 -1 -131.9
9 -1 -131.9
-3 -2 -174.1
-3 -2 -174.1
-16 3.5 -169.9
-16 3.5 4.65
-26 5 4.65
-26 5 4.65
-31.5 7 7.1
-41 10.5 4.65
-41 10.5 7.1
-50.5 15.5 7.1
-50.5 15.5 7.1
-58 20.5 7.1
-58 20.5 7.1
-65.5 26.5 4.65
-65.5 26.5 7.1
-72 32.5 7.1
-72 32.5 7.1
-79 40.5 7.1
-79 40.5 7.1
-86 49 9.6
-86 49 4.65
-86 51.5 4.65
-86 51.5 4.65
-86 51.5 4.65
-93 58.5 4.65
-93 58.5 2.25
-95 66 2.25
-95 66 2.25
-97 70 4.65
-97 70 4.65
-98.5 73 7.1
-99 74 7.1
-99 74 7.1
-100 72.5 4.65
-100 72.5 4.65
-101.5 69.5 7.1
-101.5 69.5 7.1
-103 65 4.65
-103 65 4.65
-105.5 59 7.1
-105.5 59 7.1
-107.5 51 4.65
-107.5 51 7.1
-110 43.5 7.1
-110 43.5 7.1
-113.5 35.5 7.1
-113.5 35.5 7.1
-113.5 35.5 7.1
-115 30 7.1
-115 30 4.65
-117.5 27.5 7.1
-117.5 27.5 7.1
-121 27.5 7.1
-121 27.5 4.65
-124.5 29 4.65
-128 32 4.65
-128 32 4.65
-131.5 36 7.1
-131.5 36 7.1
-135.5 41.5 4.65
-135.5 41.5 4.65
-140.5 48.5 7.1
-140.5 48.5 7.1
-147 55 9.6
-147 55 9.6
-153.5 64 7.1
-153.5 64 9.6
-158.5 73.5 4.65
-158.5 73.5 4.65
-164.5 83 0
-164.5 83 0
-164.5 83 0
-168.5 91.5 0
-168.5 91.5 0
-173.5 100 0
-173.5 100 0
-177.5 107.5 0
-180.5 114.5 0
-180.5 114.5 0
-184 120 0
-184 120 0
-187 122 0
-187 122 0
-192 124 0
-192 124 0
-194 125 0
-194 125 0
-198 124 0
-198 124 0
-200.5 121.5 0
-200.5 121.5 0
-203.5 116 0
-203.5 116 0
-206 111 0
-206 111 0
-206 111 0
-210 103 0
-210 103 0
-215 93.5 0
-215 93.5 0
-220 83 0
-224.5 71.5 -3.3
-224.5 71.5 -3.3
-228 59.5 -10.7
-228 59.5 -8.29999
-230.5 47.5 -10.7
-230.5 47.5 -10.7
-233 36 -15.5
-233 36 -15.5
-233 25.5 -15.5
-233 25.5 -15.5
-228.5 17 -10.7
-228.5 17 -10.7
-225.5 10.5 -5.8
-225.5 10.5 -5.8
-221 5.5 -3.3
-221 5.5 -0.699997
-214.5 2 0
-214.5 2 0
-214.5 2 0
-206.5 0 0
-206.5 0 0
-198.5 -1.5 0
-198.5 -1.5 0
-191.5 -1 0
-185.5 -1.5 0
-185.5 -1.5 0
-180 -2 0
-180 -2 0
-173.5 -3.5 0
-173.5 -3.5 0
-166.5 -5.5 0
-166.5 -5.5 0
-48 -69 4.65
-48 -69 4.65
-40.5 -70 2.25
-40.5 -70 2.25
-31.5 -70 0
-31.5 -70 0
-22.5 -70 -109.6
-22.5 -70 -109.6
-18 -66 -112.7
-18 -66 -112.7
-18 -66 -112.7
-12 -65 -155.1
-12 -65 -155.1
0 -63.5 -117.6
0 -63.5 -117.6
12 -61 -119.6
24.5 -58 -120.5
24.5 -58 -120.5
40 -53 -118.6
40 -53 -118.6
55 -47.5 -115.7
55 -47.5 -115.7
71 -41 -112.7
71 -41 -128.5
85 -32.5 -116.7
85 -32.5 -117.6
97.5 -24.5 -110.6
97.5 -24.5 -110.6
105 -17 20.3
105 -17 -105.3
110.5 -11.5 20.3
110.5 -11.5 20.3
112.5 -8 20.3
112.5 -8 20.3
112.5 -8 20.3
114 -7 20.3
114 -7 17.5
108 -8.5 -102
108 -8.5 -102
99.5 -12 -112.7
89 -18 -131
89 -18 -130.2
76.5 -24.5 -115.7
76.5 -24.5 -115.7
64 -31 -118.6
64 -31 -119.6
51 -36.5 -120.5
51 -36.5 -121.4
39 -41 -120.5
39 -41 -120.5
26 -43.5 -119.6
26 -43.5 -118.6
16 -44.5 -116.7
16 -44.5 -115.7
8 -43 -107.5
8 -43 -105.3
3 -43.5 -143.3
3 -43.5 -142.6
3 -43.5 -142.6
-7.5 -41.5 -139.7
-7.5 -41.5 -139.7
-2 -40 -141.1
81 -8 -114.7
81 -8 -114.7
98 2.5 -146.8
98 2.5 -144.7
112 14 -139.7
112 14 -134.3
122.5 22 -111.7
122.5 22 -110.6
122.5 22 -110.6
129.5 27.5 -110.6
129.5 27.5 -110.6
132.5 29.5 -109.6
131 27.5 -110.6
131 27.5 -110.6
127 21.5 -110.6
127 21.5 -110.6
120 13.5 -110.6
120 13.5 -110.6
110.5 1.5 -110.6
110.5 1.5 -110.6
96 -14.5 -127.7
96 -14.5 -125
81 -31 -135.9
81 -31 -131.9
64.5 -47 -138.2
64.5 -47 -120.5
48.5 -61.5 -123.2
48.5 -61.5 -123.2
32.5 -73 -120.5
32.5 -73 -119.6
17 -82.5 -117.6
17 -82.5 -116.7
17 -82.5 -116.7
3.5 -86.5 -148.8
3.5 -86.5 -148.8
-6.5 -87.5 -146.8
-6.5 -87.5 -146.8
-15.5 -87.5 0
-23 -86.5 0
-23 -86.5 2.25
-46 -65 4.65
-46 -65 4.65
-46.5 -58.5 4.65
-46.5 -58.5 4.65
-48 -53 4.65
-48 -53 4.65
-54 -50.5 4.65
-54 -50.5 4.65
-54 -50.5 4.65
-65.5 -53 4.65
-65.5 -53 4.65
-78 -52.5 2.25
-78 -52.5 2.25
-154 -13 7.1
-154 -13 4.65
-163.5 -1.5 0
-163.5 -1.5 0
-168.5 4.5 0
-168.5 4.5 0
-168.5 4.5 0
-173.5 7 0
-173.5 7 0
-177.5 7 0
-180 -2 0
-180 -2 0
-181 -14.5 0
-181 -14.5 0
-181 -24.5 0
-181 -24.5 0
-178.5 -37 0
-178.5 -37 0
-174.5 -49 0
-174.5 -49 0
-170.5 -61 0
-170.5 -61 0
-165 -73 0
-165 -73 0
-160 -82.5 0
-160 -82.5 0
-155.5 -92 0
-155.5 -92 0
-150.5 -101 0
-150.5 -101 0
-150.5 -101 0
-145 -108 0
-145 -108 0
-139 -114.5 0
-134 -120 0
-134 -120 0
-124 -127 0
-124 -127 0
-117.5 -132.5 0
-117.5 -132.5 0
-108.5 -137 0
-108.5 -137 0
-100 -143 0
-100 -143 0
-90.5 -151 0
-90.5 -151 0
-81 -158 2.25
-81 -158 2.25
-68.5 -164.5 0
-68.5 -164.5 2.25
-54.5 -172.5 2.25
-54.5 -172.5 0
-38 -180 -120.5
-38 -180 -120.5
-38 -180 -120.5
-21.5 -185 -122.3
-21.5 -185 -121.4
-3 -189.5 -156.9
-3 -189.5 -156.9
15 -194 -120.5
32.5 -195 -119.6
32.5 -195 -119.6
49 -194.5 -122.3
49 -194.5 -122.3
67 -190.5 -122.3
67 -190.5 -122.3
85 -184.5 -122.3
85 -184.5 -122.3
101 -176 -119.6
101 -176 -122.3
115.5 -164.5 0
115.5 -164.5 0
128.5 -151 0
128.5 -151 0
140 -135.5 0
140 -135.5 0
151 -119 -41.1
151 -119 -41.1
151 -119 -41.1
160.5 -103 -22.3
160.5 -103 -20.1
167.5 -89.5 0
172 -79.5 0
172 -79.5 0
175 -74.5 0
175 -74.5 0
178 -73 0
178 -73 0
179 -74.5 0
179 -74.5 0
179 -78.5 0
179 -78.5 0
176 -81.5 0
176 -81.5 0
171.5 -80.5 0
171.5 -80.5 0
166 -75 0
166 -75 0
158 -65.5 0
158 -65.5 0
151.5 -52.5 4.65
151.5 -52.5 4.65
151.5 -52.5 2.25
146.5 -36.5 20.3
146.5 -36.5 20.3
140 -18.5 20.3
140 -18.5 20.3
132 -2 23.15
122.5 15 20.3
122.5 15 20.3
112 28.5 23.15
112 28.5 23.15
100.5 40 23.15
100.5 40 20.3
88.5 50.5 20.3
88.5 50.5 -104.2
78 61 -105.3
78 61 -105.3
70.5 73.5 -103.1
70.5 73.5 -103.1
66.5 87 26.05
66.5 87 29.05
67 102.5 26.05
67 102.5 26.05
66.5 117 23.15
66.5 117 23.15
66.5 117 26.05
65.5 131 -104.2
65.5 131 -104.2
68.5 140.5 -106.4
68.5 140.5 -106.4
70.5 145.5 -107.5
75 146 -104.2
75 146 -107.5
76 142.5 -109.6
76 142.5 -109.6
75.5 135 -109.6
75.5 135 -110.6
75 126.5 -111.7
75 126.5 -111.7
75.5 115 -111.7
75.5 115 -111.7
74 101.5 -108.5
74 101.5 -107.5
72 86.5 -107.5
72 86.5 -107.5
69 70.5 -107.5
69 70.5 -107.5
69 70.5 -107.5
66.5 54.5 -110.6
66.5 54.5 -110.6
62 39 -114.7
62 39 -113.7
57.5 23.5 -115.7
57.5 23.5 -115.7
51 9.5 -115.7
43 -3.5 -115.7
43 -3.5 -114.7
33.5 -13.5 -108.5
33.5 -13.5 -111.7
21.5 -22 -114.7
21.5 -22 -114.7
11 -28 -116.7
11 -28 -119.6
3.5 -35 -119.6
3.5 -35 -120.5
-3.5 -34.5 -146.1
-3.5 -34.5 -141.1
-7 -32 -140.4
-7 -32 -138.2
-6 -27.5 -138.2
-6 -27.5 -138.2
-6 -27.5 -137.4
-1.5 -23 -138.9
-1.5 -23 -140.4
7.5 -18.5 -111.7
7.5 -18.5 -111.7
20 -16 -108.5
49.5 -14.5 -111.7
49.5 -14.5 -111.7
65 -13 -114.7
65 -13 -114.7
73 -12.5 -116.7
73 -12.5 -116.7
75.5 -10 -117.6
75.5 -10 -117.6
75 -6.5 -117.6
75 -6.5 -117.6
70 -5.5 -115.7
70 -5.5 -115.7
65 -4.5 -114.7
65 -4.5 -114.7
60.5 -4.5 -114.7
60.5 -4.5 -114.7
60.5 -4.5 -114.7
58 -4.5 -115.7
58 -4.5 -115.7
58 -4.5 -115.7
61.5 -3.5 -115.7
61.5 -3.5 -114.7
68 -3.5 -114.7
68 -3.5 -114.7
75 -3.5 -114.7
75 -3.5 -114.7
82.5 -6 -115.7
82.5 -6 -141.1
88.5 -8.5 -140.4
88.5 -8.5 -140.4
91 -10.5 -140.4
91 -10.5 -139.7
90.5 -10.5 -139.7
90.5 -10.5 -140.4
85.5 -9.5 -141.1
85.5 -9.5 -144.7
75.5 -10 -118.6
75.5 -10 -118.6
65 -11.5 -115.7
65 -11.5 -115.7
65 -11.5 -115.7
55.5 -14 -115.7
55.5 -14 -115.7
48.5 -15.5 -113.7
48.5 -15.5 -114.7
45 -15 -114.7
42.5 -14.5 -112.7
42.5 -14.5 -112.7
41 -16 -112.7
41 -16 -112.7
42 -19 -112.7
42 -19 -111.7
46 -23 -112.7
46 -23 -112.7
52.5 -28.5 -114.7
52.5 -28.5 -113.7
57 -34 -115.7
57 -34 -115.7
55 -36.5 -115.7
55 -36.5 -116.7
47.5 -38.5 -115.7
47.5 -38.5 -115.7
37.5 -41.5 -115.7
37.5 -41.5 -115.7
37.5 -41.5 -115.7
26.5 -45.5 -112.7
26.5 -45.5 -113.7
15.5 -49 0
15.5 -49 0
5.5 -52 4.65
-3.5 -56.5 2.25
-3.5 -56.5 -145.4
-10 -56.5 -143.3
-10 -56.5 -143.3
-13.5 -58.5 0
-13.5 -58.5 0
-15.5 -61.5 0
-15.5 -61.5 0
-15 -64 0
-15 -64 0
-13 -66.5 0
-13 -66.5 0
-12.5 -68.5 0
-12.5 -68.5 0
-12.5 -69.5 0
-12.5 -69.5 0
-12 -70.5 0
-12 -70.5 0
-12 -70.5 0
-10.5 -71.5 -146.1
-10.5 -71.5 -144.7
-6.5 -76 -146.8
-6.5 -76 -146.8
-1.5 -81.5 -146.8
-1.5 -81.5 -146.8
1.5 -85.5 -147.5
5 -88.5 -148.1
5 -88.5 -143.3
8 -90 -143.3
8 -90 -144
10 -91.5 -111.7
10 -91.5 -110.6
13.5 -91.5 -111.7
13.5 -91.5 -111.7
14 -89.5 -111.7
14 -89.5 -112.7
12 -86.5 -111.7
12 -86.5 -111.7
-2.5 -78 -135.1
-2.5 -78 -135.1
-2.5 -78 -137.4
19.5 -101 -115.7
19.5 -101 -116.7
21.5 -102.5 -117.6
21.5 -102.5 -117.6
17 -103 -116.7
17 -103 -117.6
5.5 -80.5 -107.5
5.5 -80.5 -108.5
9 -71 -107.5
9 -71 -107.5
14.5 -61 -107.5
14.5 -61 -107.5
20 -51 -108.5
20 -51 -108.5
26 -42 -110.6
26 -42 -110.6
26 -42 -110.6
31 -35 -112.7
31 -35 -113.7
37 -31.5 -116.7
37 -31.5 -117.6
43 -30.5 -119.6
50 -34 -118.6
50 -34 -119.6
55.5 -39.5 -119.6
55.5 -39.5 -119.6
58 -45.5 -118.6
58 -45.5 -118.6
58.5 -52.5 -118.6
58.5 -52.5 -118.6
56.5 -58.5 -119.6
56.5 -58.5 -119.6
53 -64.5 -120.5
53 -64.5 -120.5
48 -69.5 -120.5
48 -69.5 -120.5
43.5 -75 -119.6
43.5 -75 -119.6
39.5 -82 -119.6
39.5 -82 -119.6
39.5 -82 -116.7
36 -88.5 -117.6
36 -88.5 -115.7
32.5 -94.5 -115.7
32.5 -94.5 -114.7
29 -100.5 -114.7
27 -105 -113.7
27 -105 -114.7
25.5 -108 -114.7
25.5 -108 -114.7
26.5 -112 -115.7
26.5 -112 -115.7
28.5 -115 -115.7
28.5 -115 -115.7
31 -117.5 -116.7
31 -117.5 -116.7
34.5 -119 -116.7
34.5 -119 -116.7
38.5 -120 -117.6
38.5 -120 -117.6
43 -121 -117.6
43 -121 -117.6
47.5 -122.5 -118.6
47.5 -122.5 -118.6
47.5 -122.5 -119.6
51.5 -124.5 -119.6
51.5 -124.5 -118.6
55.5 -125.5 -117.6
55.5 -125.5 -118.6
58.5 -124.5 -117.6
58.5 -124.5 -117.6
59.5 -122.5 -117.6
58.5 -117 -117.6
58.5 -117 -117.6
58 -110.5 -118.6
58 -110.5 -118.6
56 -103 -118.6
56 -103 -118.6
54 -97.5 -119.6
54 -97.5 -119.6
50.5 -93 -119.6
50.5 -93 -119.6
47 -90 -119.6
47 -90 -119.6
43.5 -87 -118.6
43.5 -87 -118.6
39.5 -86 -116.7
39.5 -86 -116.7
39.5 -86 -116.7
34.5 -84.5 -115.7
34.5 -84.5 -115.7
30 -84 -115.7
30 -84 -114.7
24 -81.5 -111.7
24 -81.5 -111.7
17 -78.5 -109.6
9 -74.5 -104.2
9 -74.5 0
2 -68.5 -136.6
2 -68.5 -142.6
-3.5 -62 -141.1
-3.5 -62 -145.4
-9.5 -52 -140.4
-9.5 -52 -140.4
-15 -41.5 -127.7
-15 -41.5 -127.7
-23.5 -34.5 0
-23.5 -34.5 0
-28.5 -30 0
-28.5 -30 0
-37 -26.5 4.65
-37 -26.5 4.65
-37 -26.5 4.65
-45.5 -18 7.1
-45.5 -18 7.1
-46.5 -14 7.1
-50 -5 4.65
-50 -5 4.65
-52.5 5 7.1
-52.5 5 4.65
-54.5 10.5 4.65
-54.5 10.5 4.65
-56 12.5 2.25
-56 12.5 2.25
-57.5 14.5 4.65
-57.5 14.5 4.65
-58 17 4.65
-58 17 4.65
-59 18 4.65
-59 18 4.65
-61 17.5 4.65
-61 17.5 4.65
-63.5 15.5 4.65
-63.5 15.5 4.65
-67.5 12 2.25
-67.5 12 2.25
-67.5 12 2.25
-71 5 2.25
-71 5 2.25
-73.5 -1.5 2.25
-73.5 -1.5 2.25
-77.5 -8 2.25
-77.5 -8 2.25
-80.5 -13 2.25
-82 -17 2.25
-82 -17 2.25
-83 -20.5 2.25
-83 -20.5 2.25
-101.5 -26 4.65
-101.5 -26 4.65
-106.5 -21.5 0
-106.5 -21.5 0
-108 -17.5 0
-108 -17.5 0
-109.5 -16 0
-109.5 -16 0
-109.5 -16 0
-108 -13 0
-108 -13 0
-99.5 -8.5 4.65
-99.5 -8.5 4.65
-95 -3 4.65
-95 -3 4.65
-84.5 3.5 4.65
-77 9.5 2.25
-77 9.5 2.25
-63 15.5 4.65
-63 15.5 4.65
-51.5 21 4.65
-51.5 21 4.65
-40.5 24 0
-40.5 24 0
-29.5 25.5 -135.1
-29.5 25.5 -135.1
-16 28 -143.3
-16 28 -143.3
-5.5 29.5 -111.7
-5.5 29.5 -111.7
5 27.5 -113.7
5 27.5 -113.7
5 27.5 -113.7
11 25 -113.7
11 25 -113.7
17 21 -115.7
17 21 -115.7
22 15 -115.7
25 9 -115.7
25 9 -115.7
23.5 3 -115.7
23.5 3 -115.7
22.5 -1.5 -115.7
22.5 -1.5 -115.7
19 -4.5 -114.7
19 -4.5 -114.7
14.5 -5 -110.6
14.5 -5 -110.6
15.5 -6.5 -111.7
15.5 -6.5 -111.7
17.5 -7 -110.6
17.5 -7 -110.6
18.5 -9.5 -111.7
18.5 -9.5 -111.7
21 -12 -112.7
21 -12 -112.7
28 -20.5 -112.7
28 -20.5 -112.7
34.5 -26 -112.7
34.5 -26 -112.7
37.5 -27 -112.7
37.5 -27 -111.7
37.5 -26 -111.7
37.5 -26 -110.6
35.5 -23.5 -111.7
35.5 -23.5 -111.7
33.5 -22.5 -111.7
33.5 -22.5 -111.7
32.5 -21.5 -111.7
32.5 -21.5 -111.7
31 -21.5 -110.6
31 -21.5 -110.6
29 -20 -110.6
29 -20 -110.6
26 -16.5 0
26 -16.5 0
22.5 -10.5 0
22.5 -10.5 0
22.5 -10.5 -103.1
21 -4 -102
21 -4 -99.7
20 2 -99.7
20 2 -99.7
21 5 -99.7
21 5 -99.7
19 9 -100.8
21 13 -99.7
21 13 -99.7
29.5 16 -100.8
29.5 16 -100.8
31.5 19 -99.7
31.5 19 -99.7
36.5 20.5 -99.7
36.5 20.5 -99.7
39.5 23 -99.7
39.5 23 -99.7
40 24.5 -99.7
40 24.5 -99.7
40.5 25.5 -100.8
40.5 25.5 -100.8
40.5 26.5 -100.8
40.5 26.5 -100.8
40.5 26.5 -102
41.5 26 -102
41.5 26 -103.1
43.5 25 -103.1
43.5 25 -103.1
44 23 -104.2
44 23 -105.3
44.5 20.5 -106.4
44.5 20.5 -106.4
42 20 -107.5
52 17.5 -107.5
52 17.5 -108.5
54.5 14.5 -107.5
54.5 14.5 -107.5
56 12 -107.5
56 12 -107.5
57 10 -109.6
57 10 -109.6
58 8.5 -110.6
58 8.5 -110.6
58 7 -110.6
58 7 -110.6
48 5 -111.7
48 5 -111.7
48 5 -111.7
56 8 -111.7
56 8 -111.7
54 5 -111.7
54 5 -111.7
60 -3.5 -111.7
60 -3.5 -111.7
63.5 -9.5 -111.7
63.5 -9.5 -111.7
59 -18.5 -111.7
61 -23.5 -111.7
61 -23.5 -111.7
60 -30 -110.6
60 -30 -110.6
60 -34 -110.6
60 -34 -110.6
60.5 -38.5 -109.6
60.5 -38.5 -109.6
59.5 -42 -109.6
59.5 -42 -109.6
57.5 -43 -109.6
57.5 -43 -109.6
54.5 -44 -108.5
54.5 -44 -108.5
54.5 -44 -108.5
51.5 -45 -109.6
51.5 -45 -109.6
50 -48 -110.6
50 -48 -110.6
48.5 -48.5 -110.6
48.5 -48.5 -110.6
46.5 -47 -109.6
46.5 -47 -109.6
44.5 -44.5 -109.6
43 -42.5 -108.5
43 -42.5 -108.5
43 -42.5 -109.6
42 -41 -109.6
42.5 -39.5 -108.5
42.5 -39.5 -108.5
43 -38.5 -109.6
43 -38.5 -109.6
43 -35.5 -110.6
43 -35.5 -110.6
43 -32.5 -111.7
43 -32.5 -111.7
44 -30 -111.7
44 -30 -111.7
44 -30 -112.7
44.5 -28.5 -111.7
44.5 -28.5 -112.7
45 -26.5 -112.7
45 -26.5 -112.7
44.5 -24 -112.7
44 -20.5 -112.7
44 -20.5 -113.7
43 -16 -113.7
43 -16 -113.7
44 -11.5 -112.7
44 -11.5 -112.7
45 -6.5 -113.7
45 -6.5 -113.7
48.5 -1 -113.7
48.5 -1 -113.7
54 6 -112.7
54 6 -112.7
60 13.5 -112.7
60 13.5 -112.7
62 19.5 -111.7
62 19.5 -111.7
66 20 -110.6
66 20 -110.6
70 22 -110.6
70 22 -109.6
77 28 -109.6
77 28 -109.6
83 32.5 -108.5
83 32.5 -107.5
86.5 34 -108.5
86.5 34 -107.5
89.5 35.5 -107.5
89.5 35.5 -107.5
93 37.5 -106.4
93 37.5 -106.4
100 37 20.3
100 37 20.3
105.5 36.5 26.05
105.5 36.5 26.05
113.5 37 23.15
113.5 37 23.15
120.5 39 26.05
120.5 39 26.05
126.5 39 23.15
126.5 39 23.15
131 39 23.15
131 39 23.15
131 39 23.15
135 39 23.15
135 39 23.15
137 39.5 23.15
137 39.5 23.15
139.5 41.5 23.15
139.5 41.5 23.15
144 46.5 23.15
144 46.5 23.15
148 53 20.3
151.5 60 20.3
151.5 60 20.3
155 66 20.3
155 66 20.3
157.5 71.5 26.05
157.5 71.5 26.05
159 74.5 26.05
159 74.5 26.05
160.5 79 23.15
160.5 79 23.15
158 82.5 23.15
158 82.5 23.15
158.5 82 23.15
158.5 82 23.15
158.5 82 23.15
158.5 79.5 23.15
158.5 79.5 23.15
155 77.5 20.3
155 77.5 20.3
154 75.5 20.3
154 75.5 20.3
152.5 72.5 20.3
152.5 72.5 20.3
152.5 70 20.3
153 66.5 20.3
153 66.5 20.3
151 61 20.3
151 61 20.3
147 55 20.3
147 55 20.3
141 49 23.15
141 49 23.15
135.5 46.5 23.15
135.5 46.5 23.15
132 47 23.15
132 47 23.15
129.5 50 23.15
129.5 50 23.15
129.5 50 23.15
125.5 55.5 23.15
125.5 55.5 26.05
121 62 23.15
121 62 23.15
115 70 26.05
115 70 23.15
109 78.5 26.05
104 88.5 23.15
104 88.5 23.15
100.5 99.5 26.05
100.5 99.5 26.05
94 112.5 23.15
94 112.5 23.15
85.5 126 23.15
85.5 126 23.15
76.5 140 20.3
76.5 140 20.3
65 152.5 23.15
65 152.5 23.15
54 164.5 20.3
54 164.5 20.3
43 174.5 20.3
43 174.5 20.3
43 174.5 17.5
33.5 182.5 20.3
33.5 182.5 20.3
23.5 191 23.15
23.5 191 23.15
15 197 9.6
15 197 9.6
10 202.5 7.1
10 202.5 7.1
2.5 207 9.6
-6.5 210 -141.1
-6.5 210 -141.1
-12.5 212 -141.1
-12.5 212 -141.1
-19 214 7.1
-19 214 7.1
-26 214.5 9.6
-26 214.5 9.6
-33.5 214.5 9.6
-33.5 214.5 9.6
-41 212.5 9.6
-41 212.5 9.6
-51 209 7.1
-51 209 7.1
-51 209 9.6
-60.5 205 9.6
-60.5 205 9.6
-71 199.5 7.1
-71 199.5 7.1
-81 194 7.1
-81 194 9.6
-90 188 9.6
-90 188 9.6
-99 183 9.6
-99 183 9.6
-107 179.5 9.6
-114.5 178 9.6
-114.5 178 9.6
-121.5 179 9.6
-121.5 179 9.6
-128 182 7.1
-128 182 7.1
-133 185.5 9.6
-133 185.5 9.6
-138.5 191.5 9.6
-138.5 191.5 9.6
-142.5 198.5 9.6
-142.5 198.5 9.6
-142.5 198.5 9.6
-145 206.5 9.6
-145 206.5 9.6
-146.5 211.5 9.6
-146.5 211.5 9.6
-147 216 9.6
-147 216 12.15
-147 220 12.15
-147 220 12.15
-147.5 222 9.6
-149.5 222 12.15
-149.5 222 12.15
-152 220.5 12.15
-152 220.5 12.15
-156 218.5 7.1
-156 218.5 7.1
-161.5 213.5 4.65
-161.5 213.5 4.65
-169 206 0
-169 206 0
-179 195 0
-179 195 0
-189.5 181 0
-189.5 181 0
-189.5 181 0
-201.5 159.5 0
-201.5 159.5 0
-210 138.5 0
-210 138.5 0
-215.5 116.5 0
-215.5 116.5 0
-219 96.5 -3.3
-219 96.5 -3.3
-219.5 78.5 -3.3
-218 64.5 -3.3
-218 64.5 -3.3
-216 53 0
-216 53 0
-213.5 45.5 0
-213.5 45.5 0
-210 39.5 0
-210 39.5 0
-206.5 35.5 0
-206.5 35.5 0
-203.5 34 0
-203.5 34 0
-198.5 33.5 0
-198.5 33.5 0
-198.5 33.5 0
-194.5 34.5 0
-194.5 34.5 0
-190 38 0
-190 38 0
-185 41.5 0
-185 41.5 0
-180.5 46 0
-180.5 46 0
-174.5 51 0
-167 56 0
-167 56 0
-157.5 60.5 2.25
-157.5 60.5 2.25
-147 64 4.65
-147 64 4.65
-133 65.5 4.65
-133 65.5 4.65
-117 63 2.25
-117 63 2.25
-102.5 53 2.25
-102.5 53 2.25
-92.5 35 4.65
-92.5 35 4.65
-92.5 35 4.65
-83.5 13.5 2.25
-83.5 13.5 2.25
-75 -7.5 2.25
-75 -7.5 2.25
-66.5 -23.5 2.25
-66.5 -23.5 2.25
-57 -34 2.25
-57 -34 2.25
-57.5 -37.5 2.25
-57.5 -37.5 2.25
-52 -39.5 2.25
-44 -37 4.65
-44 -37 4.65
-38 -37.5 4.65
-38 -37.5 4.65
-30 -36 0
-30 -36 0
-24 -38.5 -104.2
-24 -38.5 -104.2
-20.5 -37.5 -105.3
-20.5 -37.5 -105.3
-18.5 -35.5 -131
-18.5 -35.5 -131
-18.5 -35.5 -131.9
-17.5 -33.5 0
-19.5 -32 0
-19.5 -32 0
-25 -31.5 -105.3
-25 -31.5 -105.3
-34 -32.5 0
-34 -32.5 0
-47 -34.5 4.65
-47 -34.5 4.65
-63 -38 2.25
-63 -38 2.25
-82 -42 2.25
-82 -42 2.25
-98.5 -44.5 2.25
-98.5 -44.5 2.25
-118 -50.5 0
-118 -50.5 0
-123.5 -50 0
-123.5 -50 0
-156 -45 2.25
-156 -45 0
-160.5 -42 0
-160.5 -42 0
-166.5 -38.5 0
-166.5 -38.5 0
-174 -37 0
-181 -34.5 0
-181 -34.5 0
-189 -33 0
-189 -33 0
-196 -31 0
-196 -31 0
-202.5 -29 0
-202.5 -29 0
-208.5 -28 0
-208.5 -28 0
-213.5 -27 0
-213.5 -27 0
-213.5 -27 0
-218.5 -26 -3.3
-218.5 -26 -5.8
-223 -25.5 -13.1
-223 -25.5 -13.1
-226.5 -24.5 -15.5
-226.5 -24.5 -13.1
-230 -23.5 -15.5
-230 -23.5 -15.5
-232 -22.5 -17.8
-232 -22.5 -17.8
-233.5 -22.5 -24.6
-234.5 -22.5 -24.6
-234.5 -22.5 -24.6
-233 -26 -22.3
-233 -26 -22.3
-231 -33.5 -20.1
-231 -33.5 -20.1
-226 -43 -13.1
-226 -43 -13.1
-217 -55 -3.3
-217 -55 -3.3
-217 -55 -3.3
-207 -66 0
-207 -66 0
-196.5 -75.5 0
-196.5 -75.5 0
-186 -83.5 0
-186 -83.5 0
-176.5 -90.5 0
-176.5 -90.5 0
-167.5 -95 0
-167.5 -95 0
-160 -100 0
-153.5 -103 0
-153.5 -103 0
-148 -107 0
-148 -107 0
-142.5 -110.5 0
-142.5 -110.5 0
-136.5 -112.5 0
-136.5 -112.5 0
-129 -111 0
-129 -111 0
-123 -111 0
-123 -111 0
-123 -111 0
-115.5 -108.5 0
-115.5 -108.5 0
-86 -84.5 2.25
-86 -84.5 2.25
-72 -71 2.25
-72 -71 2.25
-56.5 -55 2.25
-56.5 -55 2.25
-38.5 -33 4.65
-22.5 -9 4.65
-22.5 -9 4.65
-4 17.5 -110.6
-4 17.5 -110.6
14 46 -116.7
14 46 -116.7
29.5 72.5 -110.6
29.5 72.5 -110.6
43 96.5 -106.4
43 96.5 -106.4
43 96.5 -107.5
55 116 -112.7
55 116 -112.7
66 132 -110.6
66 132 -110.6
75 142.5 -109.6
75 142.5 -109.6
82 149.5 23.15
82 149.5 20.3
90 152.5 20.3
90 152.5 20.3
99.5 152.5 20.3
109 149 23.15
109 149 23.15
120 142 20.3
120 142 20.3
131 134.5 20.3
131 134.5 20.3
144 123.5 20.3
144 123.5 20.3
155.5 111.5 20.3
155.5 111.5 20.3
167 98 23.15
167 98 23.15
167 98 23.15
175 84.5 23.15
175 84.5 23.15
182 71.5 23.15
182 71.5 23.15
187 59 23.15
187 59 23.15
189.5 47.5 20.3
189.5 47.5 20.3
191 36.5 20.3
191 36.5 20.3
191.5 25.5 23.15
191.5 15.5 20.3
191.5 15.5 20.3
190.5 5.5 20.3
190.5 5.5 20.3
188.5 -4 23.15
188.5 -4 23.15
186 -12.5 23.15
186 -12.5 23.15
183.5 -22 20.3
183.5 -22 20.3
180.5 -31.5 23.15
180.5 -31.5 23.15
180.5 -31.5 20.3
176.5 -41 23.15
176.5 -41 23.15
172 -51 7.1
172 -51 7.1
167 -60.5 0
167 -60.5 0
160 -71 2.25
160 -71 2.25
152.5 -80.5 2.25
152.5 -80.5 2.25
143.5 -88.5 2.25
143.5 -88.5 2.25
134 -94 -130.2
124 -98.5 -130.2
124 -98.5 -130.2
114.5 -98.5 -127.7
114.5 -98.5 -127.7
104 -93 -118.6
104 -93 -118.6
94 -83 -118.6
94 -83 -118.6
84 -68 -118.6
84 -68 -118.6
84 -68 -118.6
73 -47 -120.5
73 -47 -120.5
62 -24 -118.6
62 -24 -118.6
49.5 3 -115.7
49.5 3 -115.7
37 31 -115.7
37 31 -115.7
23 59 -111.7
23 59 -112.7
9 87 0
9 87 4.65
-5 113.5 -170.4
-18 136.5 0
-18 136.5 0
-28.5 158.5 7.1
-28.5 158.5 7.1
-38 177.5 9.6
-38 177.5 9.6
-45 195 7.1
-45 195 7.1
-51.5 209 7.1
-51.5 209 7.1
-51.5 209 7.1
-56 222 7.1
-56 222 7.1
-59.5 230.5 9.6
-59.5 230.5 9.6
-61.5 236 9.6
-61.5 236 9.6
86 237 26.05
86 237 26.05
86 237 26.05
95 236 20.3
95 236 20.3
103 234 23.15
103 234 23.15
109 232.5 26.05
109 232.5 26.05
115 229 23.15
115 229 23.15
119 225 20.3
119 225 23.15
121.5 221 23.15
123.5 216.5 23.15
123.5 216.5 23.15
125.5 211 20.3
125.5 211 20.3
127.5 206 20.3
127.5 206 20.3
129.5 200 20.3
129.5 200 20.3
132 193 20.3
132 193 20.3
133 187 20.3
133 187 20.3
133 187 20.3
134 182 20.3
134 182 20.3
134 177 17.5
134 177 17.5
134 173 20.3
134 173 20.3
134.5 170 20.3
134.5 170 20.3
135 168 20.3
135 168 20.3
135.5 168 20.3
137.5 169 20.3
137.5 169 20.3
138.5 171.5 20.3
138.5 171.5 20.3
140 175 20.3
140 175 20.3
142 179 20.3
142 179 20.3
145 182 20.3
145 182 20.3
147.5 184.5 20.3
147.5 184.5 20.3
147.5 184.5 20.3
150 185 23.15
150 185 23.15
152.5 184.5 23.15
152.5 184.5 23.15
155.5 181.5 23.15
155.5 181.5 23.15
159.5 176.5 23.15
159.5 176.5 23.15
164.5 170.5 23.15
164.5 170.5 20.3
170.5 163 20.3
175 155 20.3
175 155 20.3
180.5 146 20.3
180.5 146 20.3
184.5 136.5 23.15
184.5 136.5 23.15
187.5 129 20.3
187.5 129 20.3
188.5 120.5 20.3
188.5 120.5 23.15
189 114 17.5
189 114 20.3
189 114 20.3
187 107.5 23.15
187 107.5 23.15
181.5 104 23.15
181.5 104 23.15
173.5 102 23.15
173.5 102 23.15
162.5 101.5 23.15
162.5 101.5 23.15
151 103.5 23.15
151 103.5 23.15
137 107 20.3
137 107 20.3
122.5 110.5 20.3
122.5 110.5 20.3
109 115 23.15
95 118.5 20.3
95 118.5 20.3
81 121 20.3
81 121 20.3
68 123 23.15
68 123 23.15
55 123.5 23.15
55 123.5 23.15
55 123.5 23.15
41.5 123 20.3
41.5 123 20.3
30 121 26.05
30 121 26.05
17 117.5 12.15
17 117.5 12.15
6.5 113.5 4.65
6.5 113.5 4.65
-3 109 -153.9
-3 109 -153.3
-12.5 103 -151.4
-19.5 97 -150.8
-19.5 97 -150.8
-26.5 91 -150.8
-26.5 91 -150.8
-32.5 82.5 -150.1
-32.5 82.5 -150.1
-37.5 73 -149.4
-37.5 73 -149.4
-41.5 63 -148.8
-41.5 63 -149.4
-45 52 -148.1
-45 52 -149.4
-45 52 -149.4
-47 41.5 -149.4
-47 41.5 -149.4
-48.5 33 -148.8
-48.5 33 -148.8
-48.5 27 -148.8
-48.5 27 -149.4
-48 24.5 -149.4
-48 24.5 -149.4
-47 26.5 -150.1
-47 26.5 -150.8
-45 32 -150.8
-43 40.5 -149.4
-43 40.5 -149.4
-40 50.5 -149.4
-40 50.5 -149.4
-40 60.5 -127.7
-40 60.5 -127.7
-42 69 -126.8
-42 69 -127.7
-46 77 -121.4
-46 77 -120.5
-52.5 84.5 2.25
-52.5 84.5 2.25
-52.5 84.5 2.25
-60 92 4.65
-60 92 4.65
-68.5 99.5 2.25
-68.5 99.5 2.25
-78 106.5 4.65
-78 106.5 4.65
-88 114.5 4.65
-88 114.5 7.1
-98.5 121 4.65
-98.5 121 7.1
-109 126.5 4.65
-109 126.5 4.65
-120 130 4.65
-131.5 133 7.1
-131.5 133 7.1
-142.5 133 7.1
-142.5 133 7.1
-154 131 7.1
-154 131 7.1
-164 127 0
-164 127 0
-174.5 120.5 0
-174.5 120.5 0
-174.5 120.5 0
-183.5 111.5 0
-183.5 111.5 0
-192.5 102 0
-192.5 102 0
-201 89 0
-201 89 0
-208 76.5 0
-208 76.5 0
-213.5 62 0
-213.5 62 -0.699997
-217.5 48 -3.3
-217.5 48 -3.3
-221 34 -5.8
-224 23.5 -10.7
-224 23.5 -10.7
-227 17 -15.5
-227 17 -15.5
-231 16.5 -20.1
-231 16.5 -20.1
-236 19 -24.6
-236 19 -24.6
-236 19 -24.6
-241 25.5 -28.9
-241 25.5 -28.9
-246.5 34 -39.1
-246.5 34 -39.1
-252.5 43 -43
-252.5 43 -43
-258 53.5 -48.6
-258 53.5 -50.4
-263 63 -55.7
-263 63 -54
-268 71.5 -59.1
-268 71.5 -57.4
-273 78 -62.4
-278 82 -67.3
-278 82 -67.3
-282.5 82 -71.9
-282.5 82 -71.9
-287.5 78.5 -74.8
-287.5 78.5 -74.8
-291.5 71.5 -80.6
-291.5 71.5 -81.9
-296 61 -81.9
-296 61 -80.6
-296 61 -80.6
-294 49.5 -81.9
-294 49.5 -81.9
-293.5 37.5 -80.6
-293.5 37.5 -80.6
-291.5 27.5 -80.6
-291.5 27.5 -80.6
-289 18.5 -73.4
-289 18.5 -73.4
-285 11.5 -73.4
-285 11.5 -73.4
-280.5 7 -70.3
-275.5 3.5 -65.7
-275.5 3.5 -65.7
-270 0 -60.8
-270 0 -60.8
-263.5 -7.5 -55.7
-263.5 -7.5 -55.7
-257 -14 -50.4
-257 -14 -50.4
-249.5 -20.5 -43
-249.5 -20.5 -41.1
-237.5 -36 -28.9
-237.5 -36 -26.7
-237.5 -36 -26.7
-230 -44 -22.3
-230 -44 -22.3
-223 -48.5 -13.1
-223 -48.5 -13.1
-218 -51.5 -3.3
-218 -51.5 -3.3
-215 -51.5 -0.699997
-215 -51.5 -0.699997
-216 -51.5 -0.699997
-216 -51.5 -0.699997
-214 -52 0
-214 -52 -0.699997
-212 -54 0
-206 -56 0
-206 -56 0
-203 -54.5 0
-203 -54.5 0
-198 -50.5 0
-198 -50.5 0
-143.5 -33.5 2.25
-143.5 -33.5 2.25
-137 -31 0
-137 -31 0
-132.5 -28.5 0
-126 -25.5 2.25
-126 -25.5 2.25
-121.5 -22.5 2.25
-121.5 -22.5 2.25
-117 -20 0
-117 -20 0
-115 -18 0
-115 -18 0
-111.5 -17 0
-111.5 -17 0
-111.5 -17 0
-109 -16 0
-109 -16 0
-107.5 -15.5 0
-107.5 -15.5 0
-108.5 -18 0
-108.5 -18 0
-106.5 -21.5 2.25
-106.5 -21.5 2.25
-106 -22.5 2.25
-106 -22.5 2.25
-103.5 -21.5 0
-103.5 -21.5 0
-105.5 -16 2.25
-105.5 -16 2.25
-101 -15.5 2.25
-96 -16 2.25
-96 -16 2.25
-92 -17.5 7.1
-92 -17.5 4.65
-86.5 -20.5 7.1
-86.5 -20.5 2.25
-83 -24 2.25
-83 -24 2.25
-83 -24 2.25
-79.5 -26.5 2.25
-79.5 -26.5 2.25
-76 -28 2.25
-76 -28 2.25
-72.5 -30 2.25
-72.5 -30 2.25
-70 -32 0
-70 -32 0
-66.5 -34.5 0
-66.5 -34.5 0
-63.5 -37 0
-63.5 -37 0
-61 -39 -99.7
-61 -39 -100.8
-59.5 -42.5 -100.8
-57.5 -47.5 -102
-57.5 -47.5 -102
-56.5 -53.5 -103.1
-56.5 -53.5 -102
-54 -59.5 -105.3
-54 -59.5 -107.5
-52 -65.5 -109.6
-52 -65.5 -109.6
-52 -65.5 -109.6
-49 -69.5 -109.6
-49 -69.5 -109.6
-46 -71 -110.6
-46 -71 -110.6
-41.5 -71.5 -111.7
-41.5 -71.5 -111.7
-43.5 -66 -110.6
-43.5 -66 -130.2
-38.5 -66 -129.4
-38.5 -66 -129.4
-33.5 -66.5 -131
-29 -68.5 -131
-29 -68.5 -131
-25 -68 -132.7
-25 -68 -132.7
-20 -67 -132.7
-20 -67 -111.7
-15 -66.5 -112.7
-15 -66.5 -112.7
-6.5 -67 -143.3
-6.5 -67 -144.7
5 -67.5 -145.4
5 -67.5 -148.8
5 -67.5 -148.8
19 -65 -112.7
19 -65 -112.7
28 -67 -111.7
28 -67 -111.7
33.5 -68 -111.7
33.5 -68 -111.7
37 -67 -112.7
37 -67 -112.7
39.5 -66 -112.7
39.5 -66 -112.7
41 -66.5 -112.7
41 -66.5 -112.7
43 -66.5 -112.7
44.5 -66.5 -112.7
44.5 -66.5 -112.7
47 -66 -112.7
47 -66 -112.7
50 -64 -111.7
50 -64 -111.7
53.5 -60 -110.6
53.5 -60 -111.7
56.5 -56 -111.7
56.5 -56 -111.7
56.5 -56 -111.7
60 -52 -111.7
60 -52 -111.7
64 -49 -111.7
64 -49 -111.7
70 -46.5 -111.7
70 -46.5 -111.7
81 -43 -110.6
81 -43 -110.6
93.5 -36.5 -108.5
93.5 -36.5 -109.6
101.5 -29 -108.5
101.5 -29 -109.6
101 -23 -109.6
95.5 -21.5 -110.6
95.5 -21.5 -109.6
90 -22.5 -110.6
90 -22.5 -110.6
87.5 -23.5 -110.6
87.5 -23.5 -110.6
85.5 -23.5 -110.6
85.5 -23.5 -110.6
82 -22.5 -109.6
82 -22.5 -110.6
82 -22.5 -110.6
78 -20.5 -110.6
78 -20.5 -110.6
75.5 -19.5 -110.6
75.5 -19.5 -110.6
72 -18 -110.6
72 -18 -110.6
66.5 -18 -107.5
66.5 -18 -107.5
64.5 -18 -107.5
64.5 -18 -107.5
61 -17.5 -106.4
61 -17.5 -106.4
58.5 -15.5 -106.4
57 -13.5 -105.3
57 -13.5 -105.3
56 -10.5 -105.3
56 -10.5 -105.3
56 -7.5 -105.3
56 -7.5 -105.3
56 -6 -105.3
56 -6 -105.3
56 -4.5 -104.2
56 -4.5 -103.1
56 -4.5 -103.1
56 -5 -103.1
56 -5 -103.1
57 -7.5 -103.1
57 -7.5 -103.1
57 -10.5 -102
57 -10.5 -103.1
57.5 -14.5 -103.1
57.5 -14.5 -103.1
57.5 -19 -103.1
57.5 -19 -103.1
59.5 -22 -104.2
62 -25 -104.2
62 -25 -104.2
66.5 -29 -106.4
66.5 -29 -105.3
70.5 -32 -106.4
70.5 -32 -105.3
71.5 -32.5 -105.3
71.5 -32.5 -105.3
70.5 -32.5 -105.3
70.5 -32.5 -104.2
67.5 -32.5 -103.1
67.5 -32.5 -103.1
67.5 -32.5 -103.1
63 -32 -100.8
63 -32 -100.8
58 -32 -98.5
58 -32 -98.5
53.5 -32 -97.3
53.5 -32 -97.3
49 -32 -96.1
49 -32 -96.1
45.5 -31 -93.7
45.5 -31 -92.4
40 -31 -89.9
40 -31 -89.9
36 -30.5 -84.7
31 -30 0
31 -30 0
27.5 -28 -80.6
27.5 -28 -80.6
25 -26.5 -81.9
25 -26.5 -80.6
24 -26 -80.6
24 -26 -79.2
23 -25 -80.6
23 -25 -79.2
23 -25 -79.2
22 -24 -79.2
22 -24 -79.2
21 -24 -79.2
21 -24 -79.2
19.5 -24.5 -79.2
19.5 -24.5 -79.2
18 -25.5 -79.2
18 -25.5 -79.2
17 -26.5 -79.2
17 -26.5 -77.7
15.5 -28.5 -77.7
14 -32 -77.7
14 -32 -79.2
12 -36.5 2.25
12 -36.5 -79.2
9.5 -43 4.65
9.5 -43 -77.7
6.5 -51.5 4.65
6.5 -51.5 4.65
3 -62 4.65
3 -62 2.25
0 -72 4.65
0 -72 7.1
0 -72 7.1
-5.5 -80.5 -93.7
-5.5 -80.5 -93.7
-9 -85.5 0
-9 -85.5 0
-12.5 -88.5 0
-12.5 -88.5 0
-13.5 -89.5 0
-13.5 -89.5 0
-12 -89 0
-12 -89 0
-8 -88 -96.1
-0.5 -86 -94.9
-0.5 -86 -99.7
9 -82.5 -98.5
9 -82.5 2.25
19 -78.5 0
19 -78.5 0
28.5 -73 -89.9
28.5 -73 -91.2
39.5 -64.5 -100.8
39.5 -64.5 -103.1
49 -55.5 -105.3
49 -55.5 -106.4
49 -55.5 -106.4
55.5 -43.5 -106.4
55.5 -43.5 -106.4
59.5 -30 -106.4
59.5 -30 -106.4
62 -16.5 -106.4
62 -16.5 -106.4
63 -2.5 -107.5
63 -2.5 -107.5
64 10.5 -108.5
64 10.5 -108.5
65 21.5 -109.6
65 21.5 -109.6
67.5 30 -108.5
71 37.5 -108.5
71 37.5 -108.5
78.5 41.5 -107.5
78.5 41.5 -107.5
88 43 -107.5
88 43 -107.5
97 42 -106.4
97 42 -105.3
107 38.5 -106.4
107 38.5 29.05
107 38.5 29.05
114.5 34.5 32.15
114.5 34.5 32.15
121.5 30 29.05
121.5 30 29.05
128 25 29.05
128 25 29.05
134 19 26.05
134 19 26.05
138.5 12 26.05
138.5 12 26.05
142.5 7 26.05
145.5 1 23.15
145.5 1 23.15
147 -4.5 26.05
147 -4.5 26.05
146.5 -10 23.15
146.5 -10 23.15
144 -15.5 23.15
144 -15.5 23.15
141 -20.5 23.15
141 -20.5 23.15
137 -26 26.05
137 -26 23.15
137 -26 23.15
133 -30.5 23.15
133 -30.5 23.15
130 -35 26.05
130 -35 26.05
126 -38.5 26.05
126 -38.5 26.05
122 -42.5 -106.4
122 -42.5 -106.4
118.5 -45.5 -105.3
118.5 -45.5 -105.3
113 -49 -99.7
113 -49 -99.7
107 -53 -99.7
100.5 -55.5 -107.5
100.5 -55.5 -107.5
92.5 -58 -107.5
92.5 -58 -107.5
84 -60 -109.6
84 -60 -110.6
75.5 -60 -111.7
75.5 -60 -112.7
66 -59 -113.7
66 -59 -113.7
66 -59 -113.7
56 -57 -111.7
56 -57 -111.7
46 -54 -111.7
46 -54 -111.7
34.5 -52 -107.5
34.5 -52 -107.5
23.5 -49 -104.2
23.5 -49 -104.2
11.5 -46 0
11.5 -46 0
-1 -44.5 -153.9
-14 -42.5 -151.4
-14 -42.5 -150.8
-19 -50 2.25
-19 -50 2.25
-29 -53.5 4.65
-29 -53.5 4.65
-36.5 -56.5 4.65
-36.5 -56.5 4.65
-42 -58 4.65
-42 -58 2.25
-42 -58 2.25
-42.5 -59 2.25
-42.5 -59 2.25
-37.5 -61 2.25
-37.5 -61 2.25
-31.5 -61 4.65
-31.5 -61 4.65
-26.5 -62 2.25
-26.5 -62 2.25
-26 -61 2.25
-26 -61 2.25
-25 -62 0
-25 -62 2.25
-22 -65 2.25
-22 -65 2.25
-18.5 -66.5 0
-14.5 -67 0
-14.5 -67 0
-10.5 -66.5 0
-10.5 -66.5 -141.1
-7 -66 -143.3
-7 -66 -143.3
-2.5 -65 -146.1
-2.5 -65 -144
-2.5 -65 -144
2 -64.5 -143.3
2 -64.5 -143.3
5.5 -64 4.65
5.5 -64 4.65
9 -62 0
9 -62 0
12.5 -61.5 0
12.5 -61.5 0
9 -55.5 4.65
9 -55.5 0
10 -54.5 0
15.5 -55.5 0
15.5 -55.5 0
12.5 -50.5 0
12.5 -50.5 0
12 -46.5 0
12 -46.5 -91.2
16 -44.5 -94.9
16 -44.5 -94.9
21 -43.5 -98.5
21 -43.5 -99.7
27.5 -42.5 -103.1
27.5 -42.5 -103.1
27.5 -42.5 -103.1
32.5 -42.5 -105.3
32.5 -42.5 -105.3
37.5 -42 -106.4
37.5 -42 -106.4
45 -41.5 -108.5
45 -41.5 -108.5
50.5 -40 -111.7
50.5 -40 -111.7
56 -40.5 -112.7
60.5 -41.5 -130.2
60.5 -41.5 -130.2
58.5 -44.5 -108.5
58.5 -44.5 -109.6
60.5 -47 -109.6
60.5 -47 -108.5
59 -46.5 -108.5
59 -46.5 -107.5
55 -45 -109.6
55 -45 -108.5
52 -42 -108.5
52 -42 -108.5
47 -41 -107.5
47 -41 -106.4
47 -41 -106.4
42 -40.5 -104.2
42 -40.5 -104.2
38 -41 -104.2
38 -41 -104.2
34.5 -42 -103.1
34.5 -42 -103.1
31 -42 -102
31 -42 -102
27.5 -41 -100.8
27.5 -41 -100.8
25.5 -40.5 -99.7
25.5 -40.5 -99.7
22.5 -40.5 -98.5
22.5 -40.5 -98.5
24 -41 -98.5
24.5 -41.5 -98.5
24.5 -41.5 -98.5
25.5 -42.5 -99.7
25.5 -42.5 -99.7
27.5 -43 -99.7
27.5 -43 -100.8
31.5 -43.5 -103.1
31.5 -43.5 -103.1
31.5 -43.5 -103.1
38.5 -45 -107.5
38.5 -45 -107.5
47.5 -47 -109.6
47.5 -47 -109.6
55.5 -46 -111.7
55.5 -46 -111.7
63 -45 -147.5
63 -45 -110.6
70.5 -45.5 -144.7
70.5 -45.5 -144.7
78.5 -47.5 -142.6
78.5 -47.5 -142.6
86 -49.5 -107.5
86 -49.5 -107.5
93.5 -53 7.1
101 -57 0
101 -57 2.25
107 -61 0
107 -61 0
112 -67 0
112 -67 0
115 -73 2.25
115 -73 2.25
115 -73 2.25
116.5 -80.5 2.25
116.5 -80.5 2.25
117 -87.5 2.25
117 -87.5 2.25
117.5 -92 0
117.5 -92 0
116.5 -96 0
116.5 -96 0
116.5 -101.5 -5.8
116.5 -101.5 -3.3
110 -109.5 -17.8
110 -114 -33.1
110 -114 -35.1
108 -118.5 -39.1
108 -118.5 -39.1
103.5 -123.5 -43
103.5 -123.5 -43
96 -126 0
96 -126 0
85.5 -127.5 0
85.5 -127.5 0
72.5 -126 -106.4
72.5 -126 -106.4
72.5 -126 -106.4
58 -121.5 -107.5
58 -121.5 -107.5
44 -116 -107.5
44 -116 -107.5
30 -109 -104.2
30 -109 -104.2
17.5 -102 -104.2
17.5 -102 -104.2
6 -96.5 -104.2
6 -96.5 -104.2
-5 -89.5 -124.1
-5 -89.5 -124.1
-10.5 -84.5 -112.7
-16.5 -83 -109.6
-16.5 -83 -99.7
-22 -79.5 -103.1
-22 -79.5 0
-26 -77 0
-26 -77 0
-28.5 -75 0
-28.5 -75 0
-31 -73 0
-31 -73 0
-31 -73 0
-32 -72 0
-32 -72 0
-31 -72 0
-31 -72 0
-23.5 -80 0
-23.5 -80 2.25
-13 -83 0
-13 -83 0
-5.5 -86 -127.7
-5.5 -86 -129.4
-3.5 -87 -131
-3.5 -87 -133.5
-0.5 -86 -131.9
3.5 -84 -131.9
3.5 -84 -133.5
7 -80.5 -128.5
7 -80.5 -96.1
11.5 -77.5 -98.5
11.5 -77.5 -96.1
17.5 -75.5 -100.8
17.5 -75.5 -99.7
25 -72 -104.2
25 -72 -104.2
25 -72 -104.2
28 -64 -104.2
28 -64 -104.2
39.5 -65 -110.6
39.5 -65 -110.6
48.5 -64.5 -109.6
48.5 -64.5 -109.6
54.5 -61.5 -127.7
54.5 -61.5 -127.7
55 -55 -127.7
55 -55 -130.2
52.5 -49 -108.5
52.5 -49 -108.5
47 -47 -106.4
47 -47 -106.4
43 -47 -104.2
41.5 -49.5 -104.2
41.5 -49.5 -104.2
40.5 -51.5 -104.2
40.5 -51.5 -104.2
39 -52.5 -104.2
39 -52.5 -104.2
37 -52.5 -103.1
37 -52.5 -102
37 -52.5 -102
35 -54 -100.8
35 -54 -100.8
33.5 -55 -99.7
33.5 -55 -99.7
33.5 -55 -99.7
33.5 -55 -98.5
34 -55 -99.7
34 -55 -98.5
38 -53 -99.7
38 -53 -99.7
43 -50 -104.2
43 -50 -104.2
50.5 -46 -105.3
59 -42 -107.5
59 -42 -107.5
68 -35 -107.5
68 -35 -107.5
78 -27 -108.5
78 -27 -107.5
87 -17 -110.6
87 -17 -109.6
94 -6 -111.7
94 -6 -111.7
94 -6 -111.7
99 4.5 -109.6
99 4.5 -109.6
103 15.5 -110.6
103 15.5 -109.6
106 26.5 -108.5
106 26.5 -107.5
108.5 36.5 -108.5
108.5 36.5 -107.5
110.5 47 -107.5
110.5 47 -107.5
112 55.5 -106.4
112 55.5 -106.4
112.5 65 -106.4
112.5 74 -105.3
112.5 74 -105.3
112 82.5 -104.2
112 82.5 -103.1
113 89 -105.3
113 89 -105.3
116 91.5 29.05
116 91.5 26.05
118 92 26.05
118 92 26.05
118 92 26.05
120 91 23.15
120 91 23.15
121 89 23.15
121 89 23.15
122 87 23.15
122 87 23.15
121 87 23.15
121 87 23.15
121 89 23.15
121 89 23.15
119.5 94 26.05
119.5 94 23.15
117 100 -103.1
117 100 -103.1
113.5 109.5 -107.5
106.5 120 -108.5
106.5 120 -107.5
98 131 -105.3
98 131 -105.3
86.5 141 0
86.5 141 -102
75 151 0
75 151 0
75 151 0
64.5 160 20.3
64.5 160 20.3
54.5 168.5 23.15
54.5 168.5 23.15
45.5 176.5 20.3
45.5 176.5 23.15
36.5 183.5 20.3
36.5 183.5 23.15
27.5 188.5 23.15
19 193.5 20.3
19 193.5 20.3
10.5 198.5 7.1
10.5 198.5 7.1
2.5 203 7.1
2.5 203 -127.7
-3.5 208 -131
-3.5 208 -129.4
-9.5 211.5 -129.4
-9.5 211.5 0
-15 215 0
-15 215 4.65
-19.5 218.5 9.6
-19.5 218.5 7.1
-19.5 218.5 7.1
-23.5 222.5 9.6
-23.5 222.5 7.1
-26.5 225.5 7.1
-26.5 225.5 7.1
-30.5 228.5 7.1
-30.5 228.5 7.1
-32.5 231.5 9.6
-32.5 231.5 9.6
-34.5 232.5 9.6
-34.5 232.5 9.6
-36 234 9.6
-36 234 9.6
-38 235 9.6
-40.5 235.5 9.6
-40.5 235.5 7.1
-43 236.5 7.1
-43 236.5 7.1
-46 237 7.1
-46 237 7.1
-50 237.5 9.6
-50 237.5 9.6
-54 238 9.6
-54 238 9.6
-54 238 9.6
-100.5 238 9.6
-100.5 238 9.6
-105 237 9.6
-105 237 12.15
-109 236 9.6
-109 236 9.6
-112.5 235 12.15
-112.5 235 12.15
-117 234.5 9.6
-117 234.5 9.6
-117 234.5 9.6
-122.5 232 9.6
-122.5 232 9.6
-126 230 9.6
-126 230 12.15
-133 228.5 9.6
-133 228.5 7.1
-134.5 225.5 7.1
-134.5 225.5 7.1
-139.5 219 7.1
-139.5 219 7.1
-143 213 7.1
-146 205.5 7.1
-146 205.5 7.1
-149 193.5 7.1
-149 193.5 4.65
-152 179.5 7.1
-152 179.5 7.1
-153 163.5 7.1
-153 163.5 7.1
-154 144.5 7.1
-154 144.5 7.1
-154.5 122 4.65
-154.5 122 4.65
-154.5 122 7.1
-155 98 4.65
-155 98 7.1
-155.5 72 4.65
-155.5 72 7.1
-155.5 45 0
-155.5 45 0
-154 18 0
-154 18 0
-154 -10.5 2.25
-154 -10.5 0
-153 -34.5 0
-153 -34.5 0
-152.5 -58 0
-152.5 -58 0
-151 -78 0
-151 -97 0
-151 -97 0
-152.5 -112 0
-152.5 -112 0
-153 -125.5 0
-153 -125.5 0
-154 -137 0
-154 -137 0
-154 -137 0
-256 -68 -54
-256 -68 -54
-258.5 -50.5 -54
-258.5 -32 -52.2
-258.5 -32 -52.2
-257 -14 -52.2
-257 -14 -52.2
-253 2 -44.9
-253 2 -44.9
-253 2 -44.9
-248 15 -39.1
-248 15 -39.1
-241 24.5 -31
-241 24.5 -31
-233.5 29 -26.7
-233.5 29 -26.7
-227 28 -20.1
-227 28 -20.1
-219.5 23 -10.7
-219.5 23 -8.29999
-211.5 13.5 0
-211.5 13.5 0
-203.5 -0.5 0
-203.5 -0.5 0
-193.5 -17.5 0
-182.5 -37 0
-182.5 -37 0
-167.5 -59 0
-167.5 -59 0
-149.5 -80.5 0
-149.5 -80.5 0
-131 -98 0
-131 -98 0
-131 -98 0
-85 -129.5 0
-85 -129.5 0
-66.5 -138.5 0
-66.5 -138.5 0
-18.5 -153 -104.2
-18.5 -153 -104.2
-1.5 -155 -104.2
-1.5 -155 -138.9
33.5 -157 -98.5
33.5 -157 -98.5
51.5 -156.5 -99.7
83.5 -153 0
83.5 -153 0
99.5 -146.5 0
99.5 -146.5 0
122 -140 0
122 -140 0
144 -129.5 0
144 -129.5 0
144 -129.5 0
164 -117 -39.1
164 -117 -39.1
182.5 -104.5 -10.7
182.5 -104.5 -8.29999
197.5 -88 0
197.5 -88 0
209.5 -73 2.25
209.5 -73 2.25
219.5 -56 2.25
219.5 -56 2.25
226 -39 2.25
226 -39 2.25
232 -21 2.25
232 -21 2.25
235 -4 2.25
235 -4 2.25
237 12.5 2.25
236.5 29.5 2.25
236.5 29.5 2.25
235.5 44 2.25
235.5 44 2.25
233 58 4.65
233 58 4.65
233 58 4.65
229.5 71 4.65
229.5 71 4.65
226.5 82 4.65
226.5 82 4.65
221 92.5 7.1
221 92.5 7.1
216.5 102 12.15
216.5 102 12.15
211 110 17.5
211 110 14.8
206.5 116.5 17.5
201.5 121 17.5
201.5 121 20.3
196.5 124.5 20.3
196.5 124.5 23.15
192.5 125.5 20.3
192.5 125.5 23.15
188.5 125.5 23.15
188.5 125.5 20.3
184.5 124.5 23.15
184.5 124.5 23.15
179 122 20.3
179 122 20.3
179 122 23.15
173 117.5 23.15
173 117.5 23.15
164.5 112 23.15
164.5 112 20.3
154.5 103 23.15
154.5 103 26.05
143.5 91.5 26.05
143.5 91.5 26.05
130 74 26.05
130 74 29.05
116 52.5 26.05
116 52.5 26.05
101.5 25.5 -98.5
101.5 25.5 -98.5
85 -4 -103.1
67 -33 -110.6
67 -33 -111.7
47 -61.5 -115.7
47 -61.5 -114.7
26 -87 -114.7
26 -87 -114.7
9.5 -103.5 -112.7
9.5 -103.5 -112.7
9.5 -103.5 -152.7
-36 -135.5 0
-36 -135.5 0
22 -123 -122.3
37 -121 -122.3
55 -118 -125
69 -115 -130.2
69 -115 -130.2
75 -114 -126.8
75 -114 -125.9
78.5 -113.5 -125
81.5 -113 -125
83.5 -113.5 -125.9
83.5 -113.5 -125.9
83.5 -113.5 -125.9
92 -113.5 -125.9
82 -120 -127.7
82 -120 -131.9
78 -122.5 -130.2
78 -122.5 -135.1
80 -123.5 -135.1
72.5 -126.5 -135.9
64.5 -128.5 -136.6
57 -130.5 -135.9
57 -130.5 -136.6
48.5 -133 -135.1
39.5 -134 -135.9
34.5 -136.5 -136.6
36 -138.5 -137.4
36 -138.5 -137.4
37.5 -139 -139.7
37.5 -139 -138.2
39 -138 -136.6
40.5 -137.5 -138.2
44 -137.5 -138.2
44 -137.5 -136.6
47.5 -137.5 -136.6
51.5 -137.5 -138.2
57 -137.5 -140.4
57 -137.5 -140.4
61.5 -138 -140.4
66.5 -138 -141.9
66.5 -138 -141.9
71.5 -137.5 -144.7
75 -138 -144.7
77.5 -138 -144.7
77.5 -138 -144
78 -138 -144
76.5 -138.5 -144.7
76.5 -138.5 -144
73 -139 -144.7
66 -139.5 -145.4
57.5 -140 -145.4
57.5 -140 -146.8
48.5 -141 -149.4
38 -143 -148.8
27 -144.5 -148.1
27 -144.5 -149.4
15 -145.5 -148.8
1.5 -145.5 -147.5
1.5 -145.5 -166.9
-13 -144.5 -165.8
-28 -143.5 0
-28 -143.5 0
-43 -141.5 0
-56 -139.5 0
-56 -139.5 0
-148 -104 0
-148 -104 0
-154 -97.5 0
-159.5 -94 0
-159.5 -94 0
-166.5 -90 0
-175 -86 0
-175 -86 0
-184 -82 0
-193.5 -79.5 0
-193.5 -79.5 0
-203 -79 0
-213 -79 -0.699997
-222 -76.5 -10.7
-222 -76.5 -10.7
-177.5 234 0
-198.5 -173 0
-201.5 -171 -98.5
-201.5 -171 -98.5
36 219 23.15
36 219 23.15
17 223 -176.8
23.5 224.5 -173.2
22.5 224.5 -177.7
22.5 224.5 -179.8
21 225 0
21 225 0
31.5 228 0
31 230 0
31 230 0
29 232 0
28.5 233.5 0
26.5 235 0
24.5 236.5 0
25 237.5 0
25 237.5 0
-16.5 221.5 0
-18 225.5 0
-19 225 0
-19 225 0
16 -63 0
-96.5 105.5 0
-96.5 105.5 0
16 -65 0
-50 -7 0
-46 -4.5 0
-49 -5 0
-49.5 -2.5 0
-52 0.5 0
-50.5 1 0
-50.5 1 0
-51 2.5 0
-50.5 2 0
9 1.5 0
-53 7 0
-53 7 0
-52.5 7 0
44 233 0
44 233 0
-49 9 0
-48 8.5 0
-48.5 9 0
-47 9 0
-47 9 0
-47 9 0
-46.5 8.5 0
-46 8.5 0
-45.5 8 0
-45.5 8 0
-46 8.5 0
-44.5 8 0
-44.5 8 0
-44.5 10.5 0
-42.5 7.5 0
-42.5 7.5 0
191 183 0
-40.5 64.5 0
-40.5 64.5 0
-39 64 0
-39 64 0
-41.5 8 0
-38 64.5 0
-43 6 0
-38 66 0
-38.5 6 0
28 65.5 0
28 65.5 0
-34.5 66 0
29 65.5 0
29.5 66 0
29.5 66 0
29.5 66 0
-38.5 7.5 0
-38 7 0
30 65 0
-37.5 7.5 0
30 65 0
30 65 0
-34.5 66 0
30 64 0
-32 64 0
-32 64 0
-34 65.5 0
-37 5 0
-32.5 66 0
-32.5 66 0
32.5 64.5 0
-36.5 4.5 0
31.5 65 0
-36 7 0
-32.5 66 0
32 64 0
31.5 64.5 0
31.5 64.5 0
31.5 64 0
32 64.5 0
32.5 64 0
32.5 64 0
32 64.5 0
32 64.5 0
31.5 64 0
32 64 0
32 64 0
32 64 0
31.5 63.5 0
31 64 0
32 63.5 0
198.5 178 0
30.5 64 0
30.5 64 0
30.5 63 0
-38 5.5 0
30 63 0
30 63.5 0
30 63 0
-39.5 4.5 0
-39 5.5 0
-39 5.5 0
-39.5 5 0
-40 5 0
28 63 0
-40 5 0
-40.5 5 0
-40.5 5 0
-40.5 5 0
28 63.5 0
28 63.5 0
-41 5.5 0
-41.5 6 0
-41 6 0
-41 6 0
-41.5 5.5 0
-41.5 5.5 0
-41.5 5 0
-41.5 6 0
-41.5 6.5 0
-42 5.5 0
-42 5.5 0
-42 5.5 0
-42 6 0
-42 5.5 0
-42 6 0
-42 5 0
-42 5.5 0
-42 5.5 0
-42 5 0
-41 4.5 0
-41 3 0
12 226 0
5 215 0
5 215 0
-41.5 -2 0
-42 -4 0
-41 -8 0
-41.5 111.5 0
-44 110 0
20 52 0
-48 51.5 0
-47 50 0
-47 50 0
-47 49.5 0
-46 48.5 0
-44.5 48 0
-44 48 0
-44 48 0
-43 47.5 0
-42.5 46 0
-40.5 46 0
-37.5 45 0
-36 44 0
-33.5 45.5 0
-29.5 43.5 0
-28 87.5 -196.4
32.5 189 17.5
32.5 189 20.3
-3 164.5 -196.7
1.5 161.5 -194.8
1.5 160 -194.8
3 162.5 -193.6
3 162.5 -191.9
13 165 -190.5
14.5 167 -189.1
14.5 167 -187.7
17.5 169 -187.7
13.5 169.5 -186.9
12.5 170 -186.9
11.5 170 -186.2
11.5 170 -185.4
10 170 -184.7
7.5 170 -184.3
6 170 -183.5
4.5 170 -183.5
3.5 170.5 -183.5
2.5 170.5 -182.7
2.5 170.5 -181.9
2.5 170.5 -158.1
3.5 170.5 -156.3
3.5 170.5 -156.3
1.5 170.5 -156.9
2 169.5 -156.9
1.5 169 -156.3
1.5 169 -156.3
3.5 169 -155.7
3.5 169 -155.7
2.5 169 -155.7
3 169 -179.4
3 169 -179.4
4 169 -179.4
4 169 -179.4
4 169 -179.8
4 169 -179.8
5 169 -179.8
3 169 -179.8
3 169 -180.3
5 169.5 -180.3
5 169.5 -180.3
5 169 -180.3
5 169.5 -180.7
5 169.5 -180.7
5 169.5 -181.5
5 169.5 -181.5
5.5 169.5 -181.9
6.5 170 -182.3
8 170.5 -182.7
8.5 170.5 -183.5
8.5 170.5 -183.9
10.5 170.5 -184.7
10.5 170.5 -185
13 171 -185
13.5 172 -185.8
14 172 -186.6
14 173 -186.2
13.5 174 -187.3
13.5 174 -187.7
13.5 174 -188
12.5 174.5 -188.7
10 175.5 -188.7
10 176 -189.1
10 176 -189.5
10.5 176.5 -189.8
10.5 177 -190.2
10.5 177 -190.2
10.5 177.5 -190.5
11 178.5 -190.5
11 179 -190.5
11 179 -190.5
11.5 179 -190.9
11.5 179.5 -190.9
11.5 179.5 -190.9
11.5 180 -190.9
11.5 180 -191.2
12.5 180.5 -191.2
12.5 181 -191.2
12.5 181 -191.2
12.5 181 -191.2
12.5 181 -191.2
13 181 -191.5
13 181 -191.5
13 181.5 -191.2
13.5 182 -191.2
13.5 182 -191.2
13.5 182.5 -191.5
13.5 182.5 -191.5
12 182.5 -191.5
12 183 -191.5
12.5 183 -191.5
12.5 183 -191.5
13 183 -191.2
14 183 -191.2
14.5 183 -190.9
13.5 183 -190.9
13.5 183 -190.9
14.5 183.5 -190.9
14.5 183.5 -190.9
11 183.5 -190.9
10.5 183.5 -190.9
15 183.5 -190.5
15 183.5 -190.2
11.5 183.5 -190.9
15 183.5 -190.5
11.5 183.5 -190.9
16 183.5 -190.5
12.5 183.5 -190.5
12.5 183.5 -190.5
13 183.5 -190.5
16.5 183.5 -191.2
16.5 183.5 -191.2
16.5 183.5 -190.9
16.5 183.5 -190.9
13 183.5 -190.2
17 183.5 -190.9
17 183.5 -190.9
18.5 183.5 -191.2
16.5 183.5 -191.2
16.5 183.5 -191.2
17 183.5 -191.2
17 183.5 -191.2
17 183.5 -190.9
17 183.5 -191.2
17 183.5 -191.5
17.5 183.5 -191.5
18 183.5 -190.9
18 183.5 -191.2
17.5 183.5 -191.5
17.5 183.5 -191.5
17.5 183.5 -191.5
17.5 183.5 -191.5
17.5 183 -191.5
15 183 -191.2
16 183 -191.5
16 183 -191.5
19.5 183 -191.2
18.5 183 -191.5
18.5 182.5 -191.5
18.5 182 -191.5
18 182 -191.5
18 182 -191.5
18.5 181.5 -191.5
20.5 181.5 -191.9
20.5 181.5 -191.9
19 181.5 -191.5
19 181.5 -191.5
19 181.5 -191.5
20 181.5 -191.5
20 181.5 -191.5
16 182 -191.5
16 181.5 -191.5
19.5 182 -191.5
19.5 182 -191.2
16.5 181.5 -191.5
16.5 181.5 -191.2
17 181 -191.2
18.5 179 -190.5
16 174.5 -189.1
16 174.5 -189.1
13 168.5 -188.7
-9.5 167 -188.4
