ply
format ascii 1.0
element vertex 2011
property float x
property float y
property float z
end_header
26 -115.5 -128.5
26 -115.5 -128.5
35 -120 -130.2
35 -120 -130.2
44 -122.5 -129.4
44 -122.5 -129.4
51 -122 -127.7
51 -122 -127.7
57.5 -120 -127.7
57.5 -120 -127.7
62.5 -115.5 -126.8
62.5 -115.5 -126.8
67.5 -109 -126.8
67.5 -109 -126.8
70 -98.5 -124.1
70 -98.5 -124.1
71 -87 -120.5
71 -87 -120.5
71 -73.5 -118.6
71 -73.5 -118.6
69 -58 -117.6
69 -58 -117.6
66.5 -42.5 -120.5
66.5 -42.5 -120.5
64 -27 -123.2
64 -27 -123.2
62 -11 -124.1
62 -11 -124.1
59.5 6.5 -122.3
59.5 6.5 -122.3
58 23 -122.3
58 23 -122.3
57.5 39 -120.5
57.5 39 -120.5
56 54.5 -118.6
56 54.5 -119.6
55 69.5 23.15
55 69.5 23.15
55 82.5 26.05
55 82.5 26.05
53.5 93.5 26.05
53.5 93.5 26.05
51.5 99.5 26.05
51.5 99.5 26.05
48.5 102.5 26.05
48.5 102.5 26.05
45 101 -119.6
45 101 -119.6
41 96 -123.2
41 96 -123.2
38 87 -124.1
38 87 -124.1
35.5 74 -123.2
35.5 74 -123.2
33 58 -119.6
33 58 -119.6
29 41.5 -116.7
29 41.5 -116.7
24.5 24.5 -118.6
24.5 24.5 -117.6
18 10 -119.6
18 10 -119.6
11.5 -0.5 -120.5
11.5 -0.5 -120.5
4 -9 -121.4
4 -9 -121.4
-4 -14 -124.1
-4 -14 -124.1
-12.5 -17 -157.5
-12.5 -17 -157.5
-21.5 -16.5 -153.3
-21.5 -16.5 -153.3
-30 -13 -148.8
-30 -13 -148.8
-38.5 -6.5 -144.7
-38.5 -6.5 -144.7
-45 4 -131.9
-45 4 -131.9
-50 15.5 -127.7
-50 15.5 -127.7
-53.5 28.5 -117.6
-53.5 28.5 -117.6
-54.5 42 4.65
-54.5 42 4.65
-53 55.5 4.65
-53 55.5 4.65
-49.5 66.5 4.65
-49.5 66.5 4.65
-46 76.5 4.65
-46 76.5 4.65
-41 85 2.25
-41 85 2.25
-35.5 91 4.65
-35.5 91 4.65
-29 95.5 0
-29 95.5 0
-23.5 97.5 0
-23.5 97.5 0
-17 97.5 -155.7
-17 97.5 -155.7
-11 95.5 -156.3
-11 95.5 -156.3
-4.5 90 -156.9
-4.5 90 -156.9
1.5 83.5 -118.6
1.5 83.5 -118.6
7 74 -119.6
7 74 -119.6
13.5 64 -119.6
13.5 64 -119.6
17.5 54 -112.7
17.5 54 -112.7
23.5 40.5 -114.7
23.5 40.5 -114.7
28.5 28.5 -114.7
28.5 28.5 -114.7
34 15.5 -119.6
34 15.5 -119.6
38 4 -119.6
38 4 -119.6
44 -6 -120.5
44 -6 -120.5
50 -14.5 -121.4
50 -14.5 -121.4
56 -21 -122.3
56 -21 -122.3
62.5 -25.5 -123.2
62.5 -25.5 -123.2
69 -28 -123.2
69 -28 -123.2
74.5 -27.5 -123.2
74.5 -27.5 -123.2
80 -24.5 -123.2
80 -24.5 -123.2
83.5 -19.5 -123.2
83.5 -19.5 -123.2
86.5 -12.5 -122.3
86.5 -12.5 -122.3
88.5 -4.5 -121.4
88.5 -4.5 -121.4
90 5.5 -121.4
90 5.5 -121.4
92 18.5 -119.6
92 18.5 -119.6
92.5 33 -118.6
92.5 33 -118.6
91 48 -115.7
91 48 -115.7
88 62.5 -121.4
88 62.5 -121.4
83.5 75.5 -122.3
83.5 75.5 -122.3
78.5 87 -122.3
78.5 87 -122.3
72 98 -120.5
72 98 -120.5
64.5 107 0
64.5 107 0
56.5 115.5 17.5
56.5 115.5 17.5
46.5 123.5 23.15
46.5 123.5 23.15
37 128.5 26.05
37 128.5 26.05
27 132 26.05
27 132 26.05
17.5 132.5 9.6
17.5 132.5 9.6
9 130.5 4.65
9 130.5 4.65
0 126 -154.5
0 126 -154.5
-9.5 118 0
-9.5 118 0
-18 107 4.65
-18 107 4.65
-27 93.5 4.65
-27 93.5 4.65
-37 78 4.65
-37 78 4.65
-47 60.5 4.65
-47 60.5 4.65
-56 43.5 4.65
-56 43.5 4.65
-67 25 4.65
-67 25 4.65
-77 6.5 4.65
-77 6.5 4.65
-88 -9.5 2.25
-88 -9.5 2.25
-97.5 -23 2.25
-97.5 -23 2.25
-109 -36.5 2.25
-109 -36.5 2.25
-120.5 -46.5 2.25
-120.5 -46.5 2.25
-130.5 -54.5 2.25
-130.5 -54.5 2.25
-140.5 -59 2.25
-140.5 -59 2.25
-151 -60 2.25
-151 -60 2.25
-160.5 -56 0
-160.5 -56 0
-169 -48 0
-169 -48 0
-176 -37 0
-176 -37 0
-180.5 -23 0
-180.5 -23 0
-182.5 -7 0
-182.5 -7 0
-182 8.5 0
-182 8.5 0
-179.5 24.5 0
-179.5 24.5 0
-175 39.5 0
-175 39.5 0
-168.5 51.5 0
-168.5 51.5 0
-162 63 0
-162 63 0
-153.5 73 9.6
-153.5 73 9.6
-144 80 7.1
-144 80 7.1
-134.5 85 4.65
-134.5 85 7.1
-124.5 88.5 4.65
-124.5 88.5 4.65
-113 89 2.25
-113 89 2.25
-101 87.5 4.65
-101 87.5 4.65
-89 83.5 4.65
-89 83.5 4.65
-77 77 4.65
-77 77 4.65
-65 69 4.65
-65 69 4.65
-53 60 4.65
-53 60 4.65
-41 49 4.65
-41 49 4.65
-29 37.5 0
-29 37.5 0
-16.5 26 -150.1
-16.5 26 -150.1
-16.5 26 -150.1
-3.5 15 -120.5
9 4.5 -120.5
9 4.5 -120.5
21 -5.5 -120.5
21 -5.5 -120.5
34.5 -14.5 -123.2
34.5 -14.5 -123.2
46.5 -21.5 -121.4
46.5 -21.5 -121.4
60 -28.5 -118.6
60 -28.5 -118.6
74 -34.5 -114.7
74 -34.5 -114.7
88 -37.5 23.15
88 -37.5 23.15
102 -38.5 23.15
102 -38.5 23.15
114.5 -36 20.3
114.5 -36 20.3
126 -31.5 23.15
126 -31.5 23.15
137 -22 20.3
137 -22 20.3
144.5 -10.5 20.3
144.5 -10.5 20.3
151.5 1.5 20.3
151.5 1.5 20.3
156 16 20.3
156 16 20.3
158 32 20.3
158 32 20.3
158 46.5 20.3
158 46.5 20.3
156 62 23.15
156 62 23.15
152 76.5 20.3
152 76.5 20.3
145.5 90 20.3
145.5 90 20.3
137.5 101.5 20.3
137.5 101.5 20.3
128 111.5 20.3
128 111.5 20.3
116.5 119.5 20.3
116.5 119.5 20.3
104.5 126 20.3
104.5 126 20.3
104.5 126 20.3
91.5 129.5 23.15
79 130 20.3
79 130 20.3
67 128 23.15
67 128 23.15
55.5 122.5 20.3
55.5 122.5 20.3
44.5 114 23.15
44.5 114 23.15
34 102 26.05
34 102 26.05
24.5 87 29.05
24.5 87 29.05
16 69 7.1
16 69 7.1
9 49.5 -118.6
9 49.5 -118.6
2 28.5 -118.6
2 28.5 -118.6
-4 7 -120.5
-4 7 -120.5
-10.5 -14 -124.1
-10.5 -14 -124.1
-18 -35.5 -125
-18 -35.5 -125
-23.5 -53.5 -124.1
-23.5 -53.5 -124.1
-29 -70.5 -124.1
-29 -70.5 -124.1
-33.5 -85 -125
-33.5 -85 -125
-37 -96 -126.8
-37 -96 -126.8
-40.5 -105.5 -127.7
-40.5 -105.5 -127.7
-44 -111 -126.8
-44 -111 -126.8
-49 -113.5 -126.8
-49 -113.5 -126.8
-55.5 -111 -124.1
-55.5 -111 -124.1
-63 -102.5 0
-63 -102.5 0
-71 -92 4.65
-71 -92 4.65
-78.5 -75.5 2.25
-78.5 -75.5 2.25
-84 -56 0
-84 -56 0
-87.5 -35 2.25
-87.5 -35 2.25
-89.5 -13 2.25
-89.5 -13 2.25
-89.5 9.5 2.25
-89.5 9.5 2.25
-87.5 31.5 2.25
-87.5 31.5 2.25
-83.5 53.5 2.25
-83.5 53.5 2.25
-78 74 4.65
-78 74 4.65
-71 91.5 4.65
-71 91.5 4.65
-63.5 107 7.1
-63.5 107 7.1
-54.5 119.5 4.65
-54.5 119.5 4.65
-46 129.5 4.65
-46 129.5 4.65
-38.5 136.5 7.1
-38.5 136.5 7.1
-29.5 140.5 4.65
-29.5 140.5 4.65
-21 140.5 0
-21 140.5 0
-13.5 137.5 -161
-13.5 137.5 -161
-6 130.5 -161
-6 130.5 -161
2 120.5 -123.2
2 120.5 -123.2
9.5 107.5 -124.1
9.5 107.5 -124.1
17 90 -125.9
17 90 -125.9
24.5 70 -125
24.5 70 -125
32.5 48.5 -119.6
32.5 48.5 -119.6
39.5 25.5 -123.2
39.5 25.5 -123.2
46.5 3 -125.9
46.5 3 -125
54 -18.5 -127.7
54 -18.5 -127.7
61.5 -36.5 -127.7
61.5 -36.5 -127.7
69 -50.5 -127.7
69 -50.5 -127.7
78 -59.5 -126.8
78 -59.5 -126.8
86 -63 -119.6
86 -63 -119.6
95 -61 -120.5
95 -61 -120.5
103.5 -52 -120.5
103.5 -52 -120.5
111 -39 -119.6
111 -39 -119.6
116.5 -21 -118.6
116.5 -21 -118.6
119 0 -116.7
119 0 -116.7
117.5 23 26.05
117.5 23 26.05
112.5 47 23.15
112.5 47 26.05
104.5 70 29.05
104.5 70 29.05
92.5 92.5 29.05
92.5 92.5 29.05
78 109.5 -124.1
78 109.5 -124.1
61 124.5 -123.2
61 124.5 -123.2
44.5 133.5 23.15
44.5 133.5 23.15
27 139 26.05
27 139 26.05
9 139.5 7.1
9 139.5 7.1
-9 134 -164.2
-9 134 -164.2
-27 122.5 4.65
-27 122.5 4.65
-44 105 4.65
-44 105 4.65
-60.5 81.5 2.25
-60.5 81.5 2.25
-75.5 57 4.65
-75.5 57 4.65
-88.5 31 2.25
-88.5 31 2.25
-102 4 2.25
-102 4 2.25
-114.5 -20.5 0
-114.5 -20.5 0
-128.5 -40 2.25
-128.5 -40 2.25
-140.5 -54.5 2.25
-140.5 -54.5 2.25
-150 -60.5 2.25
-150 -60.5 2.25
-158.5 -61 0
-158.5 -61 0
-166.5 -53.5 0
-166.5 -53.5 0
-173.5 -39 0
-173.5 -39 0
-179.5 -19.5 0
-179.5 -19.5 0
-183 2.5 0
-183 2.5 0
-184.5 25.5 0
-184.5 25.5 0
-183.5 47.5 0
-183.5 47.5 0
-180 68 0
-180 68 0
-173 87.5 0
-173 87.5 0
-164 104 0
-164 104 0
-154 117.5 9.6
-154 117.5 9.6
-141 127.5 9.6
-141 127.5 9.6
-128 135 9.6
-128 135 9.6
-113 139 9.6
-113 139 9.6
-98 137.5 4.65
-98 137.5 4.65
-83.5 131 4.65
-83.5 131 4.65
-69 117.5 4.65
-69 117.5 4.65
-55.5 99 4.65
-55.5 99 4.65
-41.5 76.5 4.65
-41.5 76.5 4.65
-27.5 54 4.65
-27.5 54 4.65
-14.5 32.5 0
-14.5 32.5 0
-2 11.5 -132.7
-2 11.5 -132.7
8 -3.5 -107.5
8 -3.5 -107.5
17.5 -15 -94.9
17.5 -15 -94.9
26 -21 -92.4
26 -21 -92.4
32.5 -21 -92.4
32.5 -21 -92.4
38 -16.5 -92.4
38 -16.5 -92.4
41.5 -8 -89.9
41.5 -8 -89.9
44 4.5 -88.6
44 4.5 -87.3
44.5 20 -84.7
44.5 20 -84.7
42.5 37.5 -84.7
42.5 37.5 -81.9
36 55 -84.7
36 55 -84.7
28 71.5 -77.7
28 71.5 -77.7
18 84 23.15
18 84 23.15
7.5 91 7.1
7.5 91 7.1
-1.5 92 -124.1
-1.5 92 -124.1
-8.5 86.5 -121.4
-8.5 86.5 -121.4
-14.5 73.5 2.25
-14.5 73.5 2.25
-20 56.5 4.65
-20 56.5 4.65
-27 34.5 4.65
-27 34.5 4.65
-34.5 10.5 7.1
-34.5 10.5 7.1
-44 -14.5 4.65
-44 -14.5 4.65
-52.5 -36.5 4.65
-52.5 -36.5 4.65
-60.5 -53.5 4.65
-60.5 -53.5 4.65
-67.5 -63.5 2.25
-67.5 -63.5 2.25
-74 -65.5 4.65
-74 -65.5 4.65
-80 -62 2.25
-80 -62 2.25
-85 -51 0
-85 -51 0
-89 -36 4.65
-89 -36 4.65
-90 -18 2.25
-90 -18 2.25
-89 1.5 2.25
-89 1.5 2.25
-85 21 2.25
-85 21 2.25
-79 38 4.65
-79 38 4.65
-70.5 52 2.25
-70.5 52 2.25
-60 62 4.65
-60 62 4.65
-48.5 67 4.65
-48.5 67 4.65
-36.5 67 4.65
-36.5 67 4.65
-21.5 62 4.65
-21.5 62 4.65
-7 54 -120.5
-7 54 -120.5
11 42 4.65
11 42 4.65
29 29 -79.2
29 29 -79.2
46.5 18 -77.7
46.5 18 -77.7
59 12 -79.2
59 12 -79.2
68 11.5 -79.2
68 11.5 -80.6
72 16.5 -79.2
72 16.5 -81.9
71 26.5 -81.9
71 26.5 -80.6
65 38.5 -83.3
65 38.5 -83.3
55.5 52 -87.3
55.5 52 -87.3
41.5 64.5 -84.7
41.5 64.5 -84.7
25.5 75.5 0
25.5 75.5 0
6 84 7.1
6 84 7.1
-16 88 4.65
-16 88 4.65
-37.5 86 4.65
-37.5 86 4.65
-55 82.5 4.65
-55 82.5 4.65
-66.5 78.5 4.65
-66.5 78.5 4.65
-68 79 4.65
-68 79 4.65
-60.5 83 4.65
-60.5 83 4.65
-45.5 85 4.65
-45.5 85 4.65
-28 83 4.65
-28 83 4.65
-10.5 77.5 4.65
-10.5 77.5 -144
4 66.5 -144
4 66.5 -144
12 54 4.65
12 54 4.65
8 42 4.65
8 42 4.65
-9 35 -148.8
-9 35 -148.8
-36 30.5 4.65
-36 30.5 4.65
-65.5 27 4.65
-65.5 27 4.65
-96 25 2.25
-96 25 2.25
-119.5 24 4.65
-119.5 24 4.65
-132 28.5 2.25
-132 28.5 2.25
-137 38.5 2.25
-137 38.5 2.25
-134 54 2.25
-134 54 2.25
-124.5 70.5 4.65
-124.5 70.5 2.25
-107.5 85.5 2.25
-107.5 85.5 2.25
-86 96.5 4.65
-86 96.5 4.65
-62 99 4.65
-62 99 4.65
-40 91 4.65
-40 91 4.65
-30 70.5 4.65
-30 70.5 4.65
-29.5 38.5 4.65
-29.5 38.5 4.65
-41.5 -8 4.65
-41.5 -8 4.65
-60 -54 4.65
-60 -54 4.65
-87 -88 0
-87 -88 0
-111.5 -103 0
-111.5 -103 0
-111.5 -103 0
-135 -106 0
-156.5 -94.5 0
-156.5 -94.5 0
-172.5 -71 0
-172.5 -71 0
-183.5 -40 0
-183.5 -40 0
-188.5 -5.5 0
-188.5 -5.5 0
-188 30 0
-188 30 0
-184 62 0
-184 62 0
-177.5 91 0
-177.5 91 0
-169.5 115.5 0
-169.5 115.5 0
-159 135.5 2.25
-159 135.5 4.65
-148 151.5 9.6
-148 151.5 9.6
-137.5 162.5 7.1
-137.5 162.5 9.6
-127 170 9.6
-127 170 9.6
-119 172.5 9.6
-119 172.5 9.6
-119 169 9.6
-119 169 9.6
-129.5 157.5 9.6
-129.5 157.5 9.6
-146.5 138.5 9.6
-146.5 138.5 9.6
-165 114.5 0
-165 114.5 0
-183 92 0
-183 92 0
-196 75 0
-196 75 0
-204.5 69 0
-204.5 69 0
-210 75 0
-210 75 0
-214.5 87 0
-214.5 87 0
-215.5 104.5 -0.699997
-215.5 104.5 -0.699997
-215.5 104.5 -0.699997
-215 121.5 0
-212 138 0
-212 138 0
-206.5 150 0
-206.5 150 0
-202 156 0
-202 156 0
-199 153 0
-199 153 0
-198.5 141 0
-198.5 141 0
-197 119.5 0
-197 119.5 0
-191.5 94.5 0
-191.5 94.5 0
-189.5 74 0
-189.5 74 0
-188 72 0
-188 72 0
-185.5 90 0
-185.5 90 0
-178 123.5 0
-178 123.5 0
-164 166 0
-164 166 0
-144.5 206.5 12.15
-144.5 206.5 12.15
-119.5 231 9.6
-119.5 231 9.6
-112.5 236 9.6
-112.5 236 9.6
-117 233 9.6
-117 233 9.6
-111 236.5 12.15
-111 236.5 12.15
-102 235 9.6
-102 235 9.6
-105 233 9.6
-105 233 9.6
-87.5 238 9.6
-87.5 238 9.6
-55.5 236 9.6
-55.5 236 9.6
-36.5 233 9.6
-36.5 233 9.6
-22 230 7.1
-22 230 7.1
-17 228.5 9.6
-17 228.5 7.1
-22.5 229 9.6
-22.5 229 9.6
-37 228.5 9.6
-37 228.5 9.6
-59 222 9.6
-59 222 9.6
-81 206 7.1
-81 206 7.1
-82 194.5 7.1
-82 194.5 7.1
-65.5 201.5 9.6
-65.5 201.5 9.6
-46.5 208 7.1
-46.5 208 7.1
-28.5 205.5 7.1
-28.5 205.5 7.1
-15 199 4.65
-15 199 4.65
-12 197.5 4.65
-12 197.5 0
-23 198 4.65
-23 198 7.1
-46 195 7.1
-46 195 7.1
-76 183.5 9.6
-76 183.5 9.6
-105 166 9.6
-105 166 9.6
-115.5 162 9.6
-115.5 162 9.6
-109 176.5 9.6
-109 176.5 9.6
-95 193 7.1
-95 193 7.1
-77.5 204 9.6
-77.5 204 9.6
-63 206.5 9.6
-63 206.5 9.6
-55.5 205.5 7.1
-55.5 205.5 7.1
-66 203.5 9.6
-66 203.5 9.6
-89 194.5 7.1
-89 194.5 9.6
-105.5 178.5 9.6
-105.5 178.5 9.6
-98 174.5 9.6
-98 174.5 9.6
-77.5 189.5 9.6
-77.5 189.5 9.6
-57.5 203.5 7.1
-57.5 203.5 7.1
-41.5 211 7.1
-41.5 211 9.6
-29 213.5 4.65
-29 213.5 4.65
-20 213.5 9.6
-20 213.5 9.6
-15 212.5 0
-15 212.5 0
-16 213 7.1
-16 213 7.1
-20.5 212 9.6
-20.5 212 9.6
-31 208.5 4.65
-31 208.5 4.65
-45.5 201 9.6
-45.5 201 9.6
-62 188 9.6
-62 188 12.15
-77 171 9.6
-77 171 9.6
-87 153 7.1
-87 153 7.1
-97.5 138.5 4.65
-97.5 138.5 4.65
-104 137 9.6
-104 137 7.1
-101.5 152 7.1
-101.5 152 9.6
-93 172.5 9.6
-93 172.5 9.6
-77 199 9.6
-77 199 9.6
-55.5 221.5 7.1
-55.5 221.5 7.1
-33.5 231.5 9.6
-33.5 231.5 9.6
-9.5 235.5 4.65
-9.5 235.5 0
7.5 233 -168.9
7.5 233 -168.4
21 228 17.5
21 228 14.8
31.5 219 23.15
31.5 219 23.15
40 210.5 23.15
40 210.5 23.15
49 207 20.3
49 207 20.3
58 207 23.15
58 207 20.3
64 209.5 23.15
64 209.5 20.3
65 210 20.3
65 210 20.3
59 205 20.3
59 205 20.3
43 195 23.15
43 195 23.15
25 178 26.05
25 178 26.05
9 160 7.1
9 160 7.1
3 150 7.1
3 150 -194.2
7.5 154 -195.8
7.5 154 7.1
21 170.5 20.3
21 170.5 20.3
39 193 23.15
39 193 20.3
58.5 216.5 20.3
58.5 216.5 23.15
77 230 20.3
77 230 20.3
91.5 237.5 20.3
91.5 237.5 23.15
100.5 234.5 23.15
100.5 234.5 26.05
88.5 223.5 23.15
88.5 223.5 20.3
70 201.5 20.3
70 201.5 20.3
53.5 178 17.5
53.5 178 23.15
51.5 169 20.3
51.5 169 20.3
62 177 20.3
62 177 20.3
78.5 195.5 20.3
78.5 195.5 20.3
97.5 215.5 23.15
97.5 215.5 20.3
116 228.5 20.3
116 228.5 20.3
132.5 235.5 20.3
132.5 235.5 23.15
177.5 237.5 23.15
177.5 237.5 23.15
190 232.5 23.15
190 232.5 20.3
201.5 225 20.3
201.5 225 20.3
212 214.5 14.8
212 214.5 12.15
222.5 204.5 7.1
222.5 204.5 7.1
230 196 2.25
230 196 2.25
233 186.5 2.25
233 186.5 2.25
230 171.5 2.25
230 171.5 2.25
217 152 9.6
217 152 9.6
191.5 128.5 20.3
191.5 128.5 20.3
160 108.5 17.5
160 108.5 17.5
133.5 94.5 23.15
133.5 94.5 23.15
122 94 23.15
122 94 23.15
122.5 107 20.3
122.5 107 20.3
131 127.5 20.3
131 127.5 20.3
144 150.5 17.5
144 150.5 17.5
158.5 170 17.5
158.5 170 17.5
172 181 23.15
172 181 23.15
183.5 186 20.3
183.5 186 20.3
192.5 182.5 23.15
192.5 182.5 23.15
199 174 23.15
199 174 23.15
203 161 20.3
203 161 23.15
202 145.5 20.3
202 145.5 20.3
196 127.5 20.3
196 127.5 23.15
178 102 23.15
178 102 23.15
153.5 72 23.15
153.5 72 23.15
129.5 41 23.15
129.5 41 20.3
113 18 23.15
113 18 23.15
107.5 2 23.15
107.5 2 23.15
116 -4 20.3
116 -4 20.3
134.5 1.5 20.3
134.5 1.5 23.15
155.5 15.5 20.3
155.5 15.5 20.3
177.5 34.5 23.15
177.5 34.5 23.15
197.5 51 20.3
197.5 51 20.3
214 64 7.1
214 64 7.1
225.5 71 2.25
225.5 71 2.25
234 69.5 0
234 69.5 2.25
239 61 2.25
239 61 0
240.5 45.5 0
240.5 45.5 0
236.5 24.5 0
236.5 24.5 0
226 -1.5 0
226 -1.5 0
209.5 -29 12.15
209.5 -29 12.15
185.5 -58 0
185.5 -58 2.25
158 -81 0
158 -81 0
130.5 -98 -0.699997
130.5 -98 -0.699997
103.5 -110 -22.3
103.5 -110 -24.6
84.5 -115.5 -150.1
84.5 -115.5 -150.1
77 -115 -150.8
77 -115 -150.8
79 -110 -150.1
79 -110 -149.4
90 -101 -148.1
90 -101 -148.1
109 -88.5 0
109 -88.5 2.25
129.5 -74.5 0
129.5 -74.5 0
147.5 -59.5 0
147.5 -59.5 0
163.5 -47 20.3
163.5 -47 23.15
176 -38.5 20.3
176 -38.5 23.15
185.5 -34.5 20.3
185.5 -34.5 20.3
192 -38.5 20.3
192 -38.5 20.3
194.5 -50.5 9.6
194.5 -50.5 9.6
188 -70 0
188 -70 0
175 -92.5 0
175 -92.5 0
157 -115.5 -35.1
157 -115.5 -35.1
140 -133.5 0
140 -133.5 0
119.5 -150.5 0
119.5 -150.5 0
98.5 -163.5 0
98.5 -163.5 0
74.5 -172.5 -155.7
74.5 -172.5 -155.7
51.5 -175.5 -153.9
51.5 -175.5 -153.3
32.5 -171 -155.1
32.5 -171 -153.9
20 -163 -154.5
20 -163 -153.9
9 -152.5 -153.3
9 -152.5 -152.7
6.5 -142.5 -153.9
6.5 -142.5 -153.9
13 -132.5 -153.3
13 -132.5 -152.7
22 -125 -153.3
22 -125 -152
33 -121.5 -152.7
33 -121.5 -151.4
45 -123 -150.8
45 -123 -150.1
56 -130 -148.1
56 -130 -146.8
64 -142 -146.1
64 -142 -145.4
67 -157.5 -147.5
67 -157.5 -147.5
65.5 -173 -147.5
65.5 -173 -146.8
58 -189 -146.8
58 -189 -146.1
47 -200 -144.7
47 -200 -144
34 -208 0
34 -208 0
18.5 -211 -142.6
18.5 -211 -142.6
3 -212.5 -146.1
3 -212.5 -172.8
-14.5 -209 -171.8
-14.5 -209 -146.1
-29.5 -203.5 -141.9
-29.5 -203.5 0
-43 -195.5 0
-43 -195.5 0
-51.5 -187 0
-51.5 -187 0
-62.5 -177.5 0
-62.5 -177.5 0
-67 -167 2.25
-67 -167 2.25
-68 -157.5 2.25
-68 -157.5 0
-62.5 -151 0
-62.5 -151 0
-57.5 -146.5 2.25
-57.5 -146.5 2.25
-51 -147 0
-51 -147 0
-42.5 -152.5 0
-42.5 -152.5 0
-35 -163.5 0
-35 -163.5 0
-27 -176.5 0
-27 -176.5 0
-19.5 -190 0
-19.5 -190 0
-16 -202.5 0
-16 -202.5 0
-17 -211.5 0
-17 -211.5 0
-23.5 -217.5 0
-23.5 -217.5 0
-36 -221 0
-36 -221 0
-52 -221 0
-52 -221 0
-68 -219 0
-68 -219 0
-84 -214 0
-84 -214 -22.3
-97 -204.5 0
-97 -204.5 0
-107 -192 0
-107 -192 0
-113 -175 -24.6
-113 -175 -24.6
-115 -156 0
-115 -156 0
-116.5 -134.5 0
-116.5 -134.5 0
-115 -110.5 0
-115 -110.5 0
-112 -87.5 0
-112 -87.5 0
-107 -66.5 0
-107 -66.5 2.25
-100.5 -48 2.25
-100.5 -48 2.25
-94 -34 2.25
-94 -34 2.25
-87 -24.5 0
-87 -24.5 0
-80.5 -20 2.25
-80.5 -20 2.25
-74.5 -20 4.65
-74.5 -20 4.65
-70 -25.5 4.65
-70 -25.5 4.65
-66.5 -36 2.25
-66.5 -36 2.25
-65 -50 2.25
-65 -50 2.25
-67.5 -66.5 4.65
-67.5 -66.5 4.65
-73.5 -82 4.65
-73.5 -82 4.65
-80.5 -93.5 0
-80.5 -93.5 0
-89 -100.5 0
-89 -100.5 0
-94.5 -101 0
-94.5 -101 0
-96 -98.5 0
-96 -98.5 0
-94.5 -92 0
-94.5 -92 0
-91.5 -85 0
-91.5 -85 0
-87.5 -78.5 0
-87.5 -78.5 0
-83 -74 0
-83 -74 0
-79.5 -73.5 0
-79.5 -73.5 0
-76 -77.5 2.25
-76 -77.5 2.25
-74 -84.5 4.65
-74 -84.5 4.65
-72.5 -95.5 2.25
-72.5 -95.5 2.25
-71.5 -108 2.25
-71.5 -108 2.25
-72.5 -120.5 0
-72.5 -120.5 0
-75 -128.5 2.25
-75 -128.5 2.25
-80.5 -130.5 0
-80.5 -130.5 0
-88.5 -127.5 0
-88.5 -127.5 0
-92.5 -120.5 0
-92.5 -120.5 0
-95.5 -109 0
-95.5 -109 0
-95.5 -96.5 0
-95.5 -96.5 0
-92 -81 0
-92 -81 0
-86 -65.5 0
-86 -65.5 2.25
-77.5 -49.5 2.25
-77.5 -49.5 2.25
-68 -36 2.25
-68 -36 2.25
-60 -25.5 4.65
-60 -25.5 4.65
-51.5 -17 4.65
-51.5 -17 4.65
-47 -14 4.65
-47 -14 4.65
-45 -14 4.65
-45 -14 4.65
-48 -17 4.65
-48 -17 4.65
-53.5 -23.5 4.65
-53.5 -23.5 4.65
-61 -30.5 4.65
-61 -30.5 4.65
-70 -38.5 2.25
-70 -38.5 2.25
-79 -47 2.25
-79 -47 2.25
-87.5 -54.5 0
-87.5 -54.5 0
-96 -60 0
-96 -60 0
-104 -63 0
-104 -63 0
-110 -63 0
-110 -63 0
-115 -62 0
-115 -62 0
-119 -60 2.25
-119 -60 2.25
-121.5 -57 0
-121.5 -57 0
-123.5 -52 0
-123.5 -52 0
-125 -46.5 0
-125 -46.5 0
-125 -41 0
-125 -41 0
-127 8 2.25
-127 8 0
-126 13.5 2.25
-126 13.5 2.25
-124.5 21 2.25
-124.5 21 2.25
-122.5 28.5 2.25
-122.5 28.5 2.25
-118 35.5 2.25
-118 35.5 2.25
-115 43 2.25
-115 43 2.25
-112 49.5 2.25
-112 49.5 2.25
-109 56.5 0
-109 56.5 0
-105.5 62 2.25
-105.5 62 2.25
-101.5 67.5 2.25
-101.5 67.5 2.25
-99 72.5 4.65
-99 72.5 2.25
-95.5 77 4.65
-95.5 77 4.65
-92 81 2.25
-92 81 2.25
-88 84 2.25
-88 84 2.25
-84.5 85 2.25
-84.5 85 2.25
-80 84.5 4.65
-80 84.5 4.65
-76 82.5 4.65
-76 82.5 4.65
-71 79.5 2.25
-71 79.5 4.65
-65.5 75 4.65
-65.5 75 4.65
-59.5 69 4.65
-59.5 69 4.65
-54 63 4.65
-54 63 4.65
-48 57 4.65
-48 57 4.65
-42.5 50 4.65
-42.5 50 4.65
-38.5 42 4.65
-38.5 42 4.65
-37 33.5 4.65
-37 33.5 4.65
-38.5 24.5 4.65
-38.5 24.5 4.65
-42 15 4.65
-42 15 4.65
-47 5.5 4.65
-47 5.5 4.65
-55 -4.5 7.1
-55 -4.5 4.65
-64.5 -14.5 4.65
-64.5 -14.5 4.65
-75 -24.5 4.65
-75 -24.5 4.65
-87 -34 2.25
-87 -34 2.25
-99.5 -43.5 2.25
-99.5 -43.5 2.25
-113 -52.5 2.25
-113 -52.5 0
-127 -61.5 0
-127 -61.5 0
-141.5 -70.5 2.25
-141.5 -70.5 0
-155 -79.5 0
-155 -79.5 0
-168 -88 0
-168 -88 0
-179.5 -95.5 0
-179.5 -95.5 0
-188.5 -102 0
-188.5 -102 0
-196 -108 0
-196 -108 0
-202 -115 0
-202 -115 0
-207 -123 0
-207 -123 0
-210.5 -130.5 -55.7
-210.5 -130.5 -57.4
-214.5 -140 -74.8
-214.5 -140 -73.4
-217 -149.5 -74.8
-217 -149.5 -74.8
-216 -157 -97.3
-216 -157 -97.3
-214.5 -164 -98.5
-214.5 -164 -97.3
-213 -170.5 -97.3
-213 -170.5 -97.3
-209.5 -179 -97.3
-209.5 -179 -98.5
-206.5 -187 -98.5
-206.5 -187 -98.5
-199.5 -196 0
-199.5 -196 0
-192 -203.5 0
-192 -203.5 0
-184 -208.5 0
-184 -208.5 0
-176 -211 -80.6
-176 -211 -79.2
-167 -212.5 -83.3
-167 -212.5 -83.3
-165.5 -208.5 -80.6
-165.5 -208.5 -79.2
-156 -209 -80.6
-156 -209 -80.6
-150 -206 -76.3
-150 -206 -76.3
-148.5 -202 -70.3
-148.5 -202 -70.3
-144 -199 -68.8
-144 -199 -68.8
-143 -190 -31
-143 -190 -33.1
-142.5 -180.5 -28.9
-142.5 -180.5 -28.9
-142.5 -170 -24.6
-142.5 -170 -24.6
-141.5 -156.5 -5.8
-141.5 -156.5 -5.8
-143.5 -142 0
-143.5 -142 0
-146 -127.5 0
-146 -127.5 0
-150 -114.5 0
-150 -114.5 0
-154.5 -103.5 0
-154.5 -103.5 0
-158.5 -95 0
-158.5 -95 0
-161 -88.5 0
-161 -88.5 0
-164 -84.5 0
-164 -84.5 0
-167 -82 0
-167 -82 0
-170.5 -81 0
-170.5 -81 0
-174 -85 0
-174 -85 0
-178.5 -91.5 0
-178.5 -91.5 0
-184.5 -98 0
-184.5 -98 0
-190.5 -104.5 0
-190.5 -104.5 0
-196.5 -111 0
-196.5 -111 0
-203 -115.5 0
-203 -115.5 0
-209 -118 0
-209 -118 0
-252.5 -61 -46.8
-252.5 -61 -48.6
-257.5 -53 -50.4
-257.5 -53 -50.4
-262 -43 -57.4
-262 -43 -57.4
-265 -34 -59.1
-265 -34 -59.1
-268 -26.5 -60.8
-268 -26.5 -60.8
-269.5 -21 -64.1
-269.5 -21 -64.1
-270 -16.5 -64.1
-270 -16.5 -62.4
-270.5 -12.5 -62.4
-270.5 -12.5 -62.4
-271 -8.5 -62.4
-271 -8.5 -62.4
-278 1.5 -67.3
-278 1.5 -67.3
-277 8.5 -68.8
-277 8.5 -68.8
-272.5 14 -64.1
-272.5 14 -65.7
-273.5 18.5 -64.1
-273.5 18.5 -62.4
-272 22 -62.4
-272 22 -62.4
-270 21 -60.8
-270 21 -60.8
-267 19.5 -59.1
-267 19.5 -59.1
-263 16 -54
-263 16 -54
-258.5 10 -52.2
-258.5 10 -52.2
-253 3 -46.8
-253 3 -44.9
-247.5 -7 -43
-247.5 -7 -41.1
-242 -16 -35.1
-242 -16 -35.1
-237 -27.5 -26.7
-237 -27.5 -26.7
-231 -38.5 -20.1
-231 -38.5 -20.1
-226.5 -50 -17.8
-226.5 -50 -15.5
-222 -62 -10.7
-222 -62 -10.7
-219 -73.5 -8.29999
-219 -73.5 -8.29999
-216.5 -83.5 -3.3
-216.5 -83.5 -3.3
-214.5 -94.5 -3.3
-214.5 -94.5 -3.3
-212 -104 0
-212 -104 0
-212 -104 0
-208.5 -115 0
-204.5 -124 0
-204.5 -124 0
-200.5 -134 0
-200.5 -134 0
-195 -142.5 -80.6
-195 -142.5 -77.7
-189 -152.5 -97.3
-189 -152.5 -96.1
-183 -162 -94.9
-183 -162 -94.9
-178.5 -171 -93.7
-178.5 -171 0
-172.5 -178.5 0
-172.5 -178.5 0
-165.5 -186 0
-165.5 -186 0
-156.5 -195.5 -64.1
-156.5 -195.5 -64.1
-148 -202.5 -70.3
-148 -202.5 -70.3
-138.5 -208 -79.2
-138.5 -208 -79.2
-128 -209.5 -77.7
-128 -209.5 -77.7
-117 -211.5 -71.9
-117 -211.5 -71.9
-106 -212.5 0
-106 -212.5 0
-94.5 -210.5 0
-94.5 -210.5 0
-84 -206 -17.8
-84 -206 -20.1
-73 -199 0
-73 -199 0
-62 -190 0
-62 -190 0
-51.5 -176.5 0
-51.5 -176.5 0
-42 -159.5 0
-42 -159.5 0
-34 -140.5 0
-34 -140.5 0
-28 -117.5 0
-28 -117.5 0
-24 -94.5 0
-24 -94.5 0
-24 -94.5 0
-21.5 -67.5 2.25
-18.5 -42 2.25
-18.5 -42 2.25
-20 -15.5 2.25
-20 -15.5 2.25
-22 7.5 4.65
-22 7.5 4.65
-26.5 28.5 4.65
-26.5 28.5 4.65
-33 43 7.1
-33 43 4.65
-41.5 52.5 4.65
-41.5 52.5 4.65
-50 55.5 4.65
-50 55.5 4.65
-59.5 53.5 4.65
-59.5 53.5 4.65
-69 47.5 2.25
-69 47.5 2.25
-80 42 2.25
-80 42 2.25
-91 34.5 2.25
-91 34.5 2.25
-104 27.5 2.25
-104 27.5 2.25
-117 21 4.65
-117 21 4.65
-129.5 16.5 2.25
-129.5 16.5 2.25
-143 13 2.25
-143 13 2.25
-155.5 10.5 2.25
-155.5 10.5 2.25
-166 8.5 0
-166 8.5 0
-175.5 5.5 0
-175.5 5.5 0
-183.5 3 0
-183.5 3 0
-190 0 0
-190 0 0
-196 -2.5 0
-196 -2.5 0
-200.5 -4.5 0
-200.5 -4.5 0
-204 -7.5 0
-204 -7.5 0
-204 -7.5 0
-206 -11 0
-207.5 -15 0
-207.5 -15 0
-210.5 -16.5 0
-210.5 -16.5 0
-215.5 -17 -0.699997
-215.5 -17 -0.699997
-223.5 -15.5 -13.1
-223.5 -15.5 -13.1
-230 -12.5 -17.8
-230 -12.5 -20.1
-236.5 -6 -26.7
-236.5 -6 -26.7
-243 2 -33.1
-243 2 -35.1
-247.5 11.5 -37.1
-247.5 11.5 -37.1
-251.5 23 -44.9
-251.5 23 -44.9
-254.5 34 -46.8
-254.5 34 -46.8
-253.5 44.5 -46.8
-253.5 44.5 -46.8
-253.5 44.5 -46.8
-253.5 56.5 -44.9
-252 68 -44.9
-252 68 -44.9
-248 81 -39.1
-248 81 -39.1
-242.5 92.5 -37.1
-242.5 92.5 -37.1
-235 103 -26.7
-235 103 -26.7
-225.5 113 -13.1
-225.5 113 -10.7
-213.5 121.5 0
-213.5 121.5 0
-200.5 129 0
-200.5 129 0
-187.5 133.5 0
-187.5 133.5 0
-173 135.5 0
-173 135.5 0
-158 134 7.1
-158 134 7.1
-141.5 129.5 9.6
-141.5 129.5 9.6
-125 124.5 7.1
-125 124.5 7.1
-111 117.5 7.1
-111 117.5 7.1
-100.5 112.5 4.65
-100.5 112.5 4.65
-94.5 112.5 4.65
-94.5 112.5 4.65
-91 118 2.25
-91 118 4.65
-90 125.5 4.65
-90 125.5 4.65
-91 135.5 4.65
-91 135.5 4.65
-94 145 4.65
-94 145 4.65
-98 153.5 7.1
-98 153.5 7.1
-104 161 9.6
-104 161 9.6
-111.5 166 7.1
-111.5 166 7.1
-120.5 168.5 9.6
-120.5 168.5 9.6
-131 170 9.6
-131 170 12.15
-141 169 9.6
-141 169 9.6
-153.5 165 9.6
-153.5 165 9.6
-168.5 156 0
-168.5 156 0
-185 143.5 0
-185 143.5 0
-200 126.5 0
-200 126.5 0
-213 106 0
-213 106 0
-220 85 -3.3
-220 85 -3.3
-222.5 63 -8.29999
-222.5 63 -8.29999
-219 43 -3.3
-219 43 -3.3
-210.5 28 0
-210.5 28 0
-197.5 17.5 0
-197.5 17.5 0
-197.5 17.5 0
-181 14 0
-161.5 13.5 0
-161.5 13.5 0
-139.5 17 2.25
-139.5 17 2.25
-120 23 4.65
-120 23 4.65
-101 30.5 2.25
-101 30.5 4.65
-83.5 41.5 2.25
-83.5 41.5 2.25
-68.5 55 4.65
-68.5 55 4.65
-56.5 70.5 2.25
-56.5 70.5 2.25
-47.5 87 2.25
-47.5 87 2.25
-42.5 103.5 4.65
-42.5 103.5 4.65
-41 119 4.65
-41 119 4.65
-43 133.5 7.1
-43 133.5 7.1
-48.5 146 7.1
-48.5 146 7.1
-57 155 4.65
-57 155 4.65
-68 162.5 7.1
-68 162.5 7.1
-81 167 9.6
-81 167 9.6
-97 169 7.1
-97 169 7.1
-114 167.5 7.1
-114 167.5 7.1
-134 161.5 9.6
-134 161.5 9.6
-153 150 9.6
-153 150 9.6
-170 132.5 0
-170 132.5 0
-181.5 115.5 0
-181.5 115.5 0
-188 97.5 0
-188 97.5 0
-189 81.5 0
-189 81.5 0
-186.5 64.5 0
-186.5 64.5 0
-180.5 47.5 0
-180.5 47.5 0
-171.5 29.5 0
-171.5 29.5 0
-159.5 8.5 0
-159.5 8.5 0
-146 -14 0
-146 -14 0
-129.5 -37 0
-129.5 -37 0
-111.5 -61 0
-111.5 -61 0
-92 -84 2.25
-92 -84 2.25
-69.5 -108 2.25
-69.5 -108 2.25
-49 -129.5 0
-49 -129.5 0
-31.5 -145 0
-31.5 -145 0
-17 -156.5 -117.6
-17 -156.5 -117.6
-7 -167.5 -120.5
-7 -167.5 -152
2.5 -177 -153.9
2.5 -177 -119.6
8 -183 -119.6
8 -183 -119.6
9.5 -186 -119.6
9.5 -186 -118.6
6.5 -187 -118.6
6.5 -187 -116.7
-2.5 -186.5 -140.4
-2.5 -186.5 -135.1
-16.5 -182 -109.6
-16.5 -182 -109.6
-28 -176 0
-28 -176 0
-39 -169 0
-39 -169 0
-51 -164 0
-51 -164 0
-61.5 -159.5 2.25
-61.5 -159.5 2.25
-74.5 -151 2.25
-74.5 -151 2.25
-86 -142.5 0
-86 -142.5 0
-93 -134 0
-93 -134 0
-97.5 -124 0
-97.5 -124 0
-97 -114.5 0
-97 -114.5 0
-91.5 -106 0
-91.5 -106 0
-82 -104.5 0
-82 -104.5 0
-71.5 -107 2.25
-71.5 -107 2.25
-59.5 -114 2.25
-59.5 -114 2.25
-49 -123 0
-49 -123 0
-41 -136 0
-41 -136 0
-32.5 -149 0
-32.5 -149 0
-23 -159.5 0
-23 -159.5 0
-12 -164.5 0
-12 -164.5 -105.3
-2.5 -166 -112.7
-2.5 -166 -104.2
6.5 -164 -88.6
6.5 -164 -88.6
15 -159.5 -88.6
15 -159.5 -88.6
23.5 -154 -87.3
23.5 -154 -86
32.5 -147.5 -81.9
32.5 -147.5 -81.9
41.5 -140.5 -73.4
41.5 -140.5 -73.4
50 -134.5 -77.7
50 -134.5 -77.7
60 -128 -76.3
60 -128 -76.3
67.5 -121.5 -76.3
67.5 -121.5 -76.3
75 -115.5 -76.3
75 -115.5 -76.3
78 -110.5 -74.8
78 -110.5 -74.8
81 -109 -74.8
81 -109 -74.8
81.5 -109 -74.8
81.5 -109 -73.4
79.5 -112 -77.7
79.5 -112 -76.3
76 -114.5 -77.7
76 -114.5 -77.7
69 -114 -76.3
69 -114 -77.7
61 -110 -76.3
61 -110 -76.3
52.5 -102 -74.8
52.5 -102 -74.8
44.5 -90 -74.8
44.5 -90 -74.8
36 -74 -79.2
36 -74 -79.2
28 -58 -79.2
28 -58 -79.2
21 -42.5 -76.3
21 -42.5 -76.3
16.5 -29.5 -74.8
16.5 -29.5 -74.8
13.5 -19.5 -71.9
13.5 -19.5 -73.4
13 -12 -73.4
13 -12 -73.4
16 -8.5 -71.9
16 -8.5 -71.9
21.5 -6.5 -71.9
21.5 -6.5 -73.4
29.5 -8 -76.3
29.5 -8 -76.3
41.5 -11.5 -74.8
41.5 -11.5 -74.8
54 -19 -79.2
54 -19 -79.2
64.5 -27 -77.7
64.5 -27 -77.7
73 -33 -70.3
73 -33 -70.3
79.5 -37.5 -70.3
79.5 -37.5 -70.3
82 -40.5 -68.8
82 -40.5 -68.8
81.5 -43 -70.3
81.5 -43 -70.3
78.5 -46 -70.3
78.5 -46 -71.9
71 -47.5 -70.3
71 -47.5 -70.3
59.5 -47 -73.4
59.5 -47 -71.9
45 -45.5 -81.9
45 -45.5 -80.6
30.5 -42 -83.3
30.5 -42 -83.3
22 -36.5 -83.3
22 -36.5 -83.3
19 -29 -83.3
19 -29 -83.3
20 -22.5 -83.3
20 -22.5 -83.3
24 -19 -83.3
24 -19 -83.3
29 -18.5 -83.3
29 -18.5 -83.3
35 -22 -80.6
35 -22 -80.6
40.5 -29.5 -77.7
40.5 -29.5 -77.7
45.5 -39.5 -77.7
45.5 -39.5 -77.7
49 -50.5 14.8
49 -50.5 12.15
51.5 -59.5 0
51.5 -59.5 0
53 -67.5 0
53 -67.5 0
53.5 -72.5 2.25
53.5 -72.5 2.25
54.5 -75.5 0
54.5 -75.5 0
55 -78 0
55 -78 0
54.5 -80 0
54.5 -80 0
54 -81 -28.9
54 -81 -28.9
54 -82 -28.9
54 -82 -28.9
53.5 -84 -28.9
53.5 -84 -28.9
53.5 -84 -28.9
53 -85 -31
52 -86 -31
52 -86 -28.9
52 -86.5 -28.9
52 -86.5 -31
52 -87 -31
52 -87 -28.9
51 -87 -28.9
51 -87 -28.9
51 -87 -28.9
51 -87 -28.9
50.5 -87 -31
50.5 -87 -31
50.5 -87 -28.9
50.5 -87 -28.9
50.5 -87 -31
50.5 -87 -31
50.5 -86 -28.9
50.5 -86 -28.9
50 -86 -28.9
50 -86 -28.9
50 -86 -31
50 -86 -31
50 -86 -28.9
50 -86 -31
50 -85.5 -31
50 -85.5 -28.9
50 -85.5 -28.9
50 -85.5 -31
49.5 -85.5 -31
49.5 -85.5 -28.9
50 -85 -31
50 -85 -31
49 -85.5 -28.9
49 -85.5 -28.9
49 -85.5 -31
49 -85.5 -31
49 -85.5 -28.9
49 -85.5 -28.9
49 -86 -31
49 -86 -31
49 -86 -28.9
49 -86 -28.9
49 -87 -28.9
49 -87 -28.9
49 -87 -28.9
49 -87 -28.9
49 -87 -28.9
49 -87.5 -28.9
48.5 -87.5 -31
48.5 -87.5 -28.9
48.5 -87.5 -28.9
48.5 -87.5 -28.9
48.5 -88 -28.9
48.5 -88 -31
48.5 -88 -31
48.5 -88 -31
48.5 -88 -28.9
48.5 -88 -28.9
48.5 -88 -28.9
48.5 -88 -28.9
48 -88.5 -28.9
48 -88.5 -28.9
47.5 -89 -28.9
47.5 -89 -28.9
47 -89.5 -28.9
47 -89.5 -28.9
46.5 -90 -28.9
46.5 -90 -28.9
47 -91.5 -28.9
47 -91.5 -28.9
46.5 -94 -26.7
46.5 -94 -26.7
46.5 -98 -26.7
46.5 -98 -28.9
45 -101.5 -28.9
45 -101.5 -28.9
48 -107 -28.9
48 -107 -28.9
50 -114 -35.1
50 -114 -35.1
53.5 -120.5 -41.1
53.5 -120.5 -41.1
59 -126.5 0
59 -126.5 0
64 -129.5 0
64 -129.5 0
67.5 -130 0
67.5 -130 0
68.5 -131 0
68.5 -131 0
67.5 -127.5 0
67.5 -127.5 0
64.5 -124 -41.1
64.5 -124 -41.1
64.5 -124 -41.1
-37 -91.5 -96.1
-41 -88 -96.1
-43.5 -83 -93.7
-45.5 -78.5 -91.2
-45 -75 -91.2
-43.5 -72 -91.2
-42 -69 -92.4
-41 -68 -94.9
-39 -68 -94.9
-38 -67 -94.9
-37.5 -66.5 -94.9
-36 -65 -94.9
-35.5 -64 -96.1
-34.5 -64 -96.1
-33 -65 -96.1
-31 -66.5 -96.1
-29 -67.5 -96.1
-27.5 -68.5 -96.1
-26 -69 -96.1
-26.5 -68.5 -96.1
-26 -68.5 -96.1
-26 -70 -96.1
-25.5 -70 -96.1
-25.5 -69.5 -97.3
-25 -68 -97.3
-24.5 -67.5 -98.5
-24 -66 -97.3
-24 -66 -97.3
-22.5 -62.5 -97.3
-23.5 -62 -98.5
-21.5 -61.5 -105.3
-21.5 -59.5 -106.4
-21.5 -58.5 -106.4
-21 -58.5 -106.4
