ply
format ascii 1.0
element vertex 2058
property float x
property float y
property float z
end_header
-301 222.5 2.5
8 -237.5 -115.7
3 -232.5 -105.3
-2.5 -224 -93.7
-8.5 -216.5 -24.6
-14 -210 -17.8
-19 -206.5 -10.7
-26 -212 -10.7
-28 -205.5 -8.29999
-31 -207 -13.1
-33.5 -207.5 -10.7
-36 -207 -13.1
-41 -215 -22.3
-41 -215 -22.3
-38.5 -207.5 -13.1
-42 -215 -22.3
-42.5 -215 -22.3
-38.5 -206.5 -13.1
-38.5 -205.5 -10.7
-104 -164 -13.1
-108 -160.5 -10.7
-112.5 -158.5 -10.7
-114 -160 -8.29999
-114 -167.5 -8.29999
-114 -172.5 -10.7
-39.5 -204.5 -10.7
-40 -204.5 -5.8
-40.5 -204.5 -8.29999
-41 -204 -5.8
-41 -204.5 -8.29999
-41.5 -204 -10.7
-42 -204 -3.3
-42.5 -204 -5.8
-43 -203.5 -5.8
-44 -203.5 -10.7
-44 -203.5 -8.29999
-44.5 -203.5 -5.8
-45 -203.5 -8.29999
-45 -208.5 -15.5
-44 -207.5 -13.1
-45 -199 1.4013e-45
-44.5 -195.5 1.4013e-45
-42.5 -189.5 1.4013e-45
-38.5 -173.5 1.4013e-45
-36.5 -163.5 1.4013e-45
-36.5 -163.5 1.4013e-45
-34 -154.5 1.4013e-45
-32 -145 1.4013e-45
-31 -136.5 1.4013e-45
-30 -129.5 1.4013e-45
-29 -124 1.4013e-45
-28.5 -120.5 1.4013e-45
-29.5 -120 1.4013e-45
-30.5 -122 1.4013e-45
-32 -126 1.4013e-45
-33.5 -141 1.4013e-45
-34.5 -150.5 1.4013e-45
-34.5 -150.5 1.4013e-45
-35 -160.5 1.4013e-45
-36 -169.5 1.4013e-45
-39 -190.5 1.4013e-45
-112 -195.5 1.4013e-45
-42.5 -186.5 1.4013e-45
-43.5 -186.5 1.4013e-45
-45 -187.5 1.4013e-45
-45 -188.5 1.4013e-45
-45.5 -189.5 1.4013e-45
-43.5 -191.5 1.4013e-45
-43.5 -191.5 1.4013e-45
-43 -192 1.4013e-45
-109.5 -195.5 1.4013e-45
-110 -195 1.4013e-45
-41 -194 1.4013e-45
-40.5 -194 1.4013e-45
-109.5 -195.5 1.4013e-45
-40.5 -194 1.4013e-45
-102.5 -186.5 1.4013e-45
-101.5 -186 1.4013e-45
-40 -195 1.4013e-45
-40 -195 1.4013e-45
-39.5 -194.5 1.4013e-45
-39.5 -194.5 1.4013e-45
-39 -194.5 1.4013e-45
-39.5 -195 1.4013e-45
-39 -195 1.4013e-45
-38.5 -195 1.4013e-45
-38.5 -195 1.4013e-45
-66.5 -197 1.4013e-45
-66 -199.5 -0.699997
-66 -200.5 -0.699997
-39 -194.5 -5.8
-39 -194.5 -3.3
-37.5 -193.5 -3.3
-38 -193 -3.3
-66.5 -204.5 -5.8
-66.5 -205 -5.8
-66 -206.5 -8.29999
-66 -206.5 -5.8
-66.5 -215 -8.29999
-39 -196.5 -10.7
-41.5 -204.5 -5.8
-37.5 -197 -17.8
-36 -194.5 -15.5
-32 -189 -15.5
-31.5 -183.5 -15.5
-32.5 -173.5 -15.5
-33 -168.5 -13.1
-37 -168.5 -13.1
-38 -164.5 -13.1
-36 -158 -15.5
-36.5 -158.5 -17.8
-39 -162 -15.5
-42.5 -169 -13.1
-46 -174 -13.1
-48 -176.5 -13.1
-51 -181 -13.1
-57 -193 -13.1
-56 -186.5 -10.7
-57.5 -188 -8.29999
-57.5 -188 -8.29999
-56.5 -188 -8.29999
-56.5 -188 -8.29999
-57 -188 -8.29999
-70 -215 -20.1
-57 -186.5 -8.29999
-57 -186 -3.3
-58 -186 1.4013e-45
-57.5 -186 1.4013e-45
-60.5 -194 1.4013e-45
-59.5 -193.5 1.4013e-45
-59.5 -194 1.4013e-45
-82.5 -156.5 1.4013e-45
-57 -185.5 1.4013e-45
-56.5 -185 1.4013e-45
-56.5 -185.5 1.4013e-45
-57 -185.5 1.4013e-45
-81 -149 1.4013e-45
-81 -149.5 1.4013e-45
-56 -185.5 1.4013e-45
-56 -185.5 1.4013e-45
-55.5 -185 1.4013e-45
-56 -185 1.4013e-45
-56 -185.5 1.4013e-45
-82.5 -151.5 1.4013e-45
-55.5 -186 1.4013e-45
-55.5 -186 1.4013e-45
-55.5 -186 1.4013e-45
-55.5 -187 1.4013e-45
-59.5 -195 1.4013e-45
-56.5 -187 1.4013e-45
-57 -187.5 1.4013e-45
-57 -187.5 1.4013e-45
-60 -194 -0.699997
-60.5 -195 -3.3
-60.5 -195 -5.8
-61 -195 -5.8
-60.5 -195 -5.8
-61 -195 -5.8
-60.5 -186 -8.29999
-60.5 -186 -8.29999
-60.5 -185.5 -8.29999
-60.5 -185.5 -8.29999
-63 -194 -8.29999
-63 -195 -17.8
-110 -215 -20.1
-62.5 -195 -5.8
-60 -187.5 -8.29999
-60 -187.5 -8.29999
-60 -187.5 -5.8
-59.5 -187.5 -5.8
-59.5 -187.5 -3.3
-61 -195 1.4013e-45
-58.5 -188 -0.699997
-60.5 -195 1.4013e-45
-61 -195 1.4013e-45
-59.5 -188 1.4013e-45
-109.5 -177 1.4013e-45
-59.5 -188.5 1.4013e-45
-59 -188.5 1.4013e-45
-59.5 -189 1.4013e-45
-108.5 -194.5 1.4013e-45
-59.5 -188.5 1.4013e-45
-59.5 -189.5 -0.699997
-59.5 -189 -8.29999
-59.5 -188.5 -10.7
-60.5 -187.5 -13.1
-61 -187.5 -17.8
-61.5 -187 -26.7
-61.5 -187 -33.1
-64 -196 -37.1
-63.5 -187.5 -37.1
-139.5 -235.5 -39.1
-141 -236 -41.1
-141.5 -235.5 -41.1
-74.5 -175.5 -43
-77.5 -171 -43
-143.5 -237 -44.9
-144.5 -237.5 -44.9
-144.5 -238 -44.9
-144.5 -238 -43
-144.5 -238 -43
-144 -237.5 -46.8
-143.5 -237.5 -44.9
-143.5 -237 -43
-143.5 -237.5 -43
-144.5 -237.5 -44.9
-144.5 -237.5 -44.9
-145 -237.5 -44.9
-144.5 -238 -43
-12.5 -179 1.4013e-45
-18 -178.5 1.4013e-45
-22.5 -178 1.4013e-45
-25 -177 1.4013e-45
-24.5 -177 1.4013e-45
-20.5 -177 1.4013e-45
-14 -177.5 1.4013e-45
-144.5 -238 -43
-145 -238 -46.8
-144.5 -238 -44.9
19.5 -169 -99.7
19 -171.5 -99.7
15.5 -176 -98.5
12 -181 -98.5
6.5 -188 -93.7
-12 -203 -10.7
-23.5 -210 -17.8
-23.5 -210 -15.5
-52 -217.5 -24.6
-65.5 -216 -17.8
-79 -212.5 -15.5
-145 -236.5 -43
-109 -210 -13.1
-114 -210.5 -10.7
-113 -206 -8.29999
-115 -207.5 -8.29999
-115.5 -207 -8.29999
-143 -237 -43
-117 -211 -15.5
-117.5 -211 -13.1
-117.5 -210 -8.29999
-117 -209 -10.7
-143 -210.5 -17.8
-142 -209 -13.1
-115.5 -207 -8.29999
-144.5 -210 -13.1
-115.5 -206.5 -8.29999
-115.5 -206.5 -8.29999
-116 -206.5 -5.8
-116.5 -207 -10.7
-140 -236 -41.1
-134.5 -238 -44.9
-132.5 -238 -43
-129.5 -236.5 -43
-111 -208 -10.7
-104.5 -202.5 -0.699997
-96 -205.5 -5.8
-78.5 -198 -0.699997
-59 -203 -3.3
-110 -229 -35.1
-109.5 -229.5 -35.1
-110.5 -229.5 -37.1
-110 -230 -35.1
-110 -230 -39.1
10.5 -205 -97.3
12.5 -202 -98.5
-111 -230 -37.1
5.5 -198 -97.3
1 -196 -94.9
-5 -190.5 -37.1
-5 -188.5 -37.1
2 -189.5 -92.4
-109.5 -230 -35.1
-109.5 -230 -37.1
33.5 -189.5 -37.1
35 -189 -37.1
35 -189 -35.1
29.5 -191 -39.1
23.5 -190 -35.1
10 -187 -77.7
-1 -184 -79.2
-8 -183 -37.1
-11 -184 -35.1
-13 -186.5 -35.1
-19.5 -195 -35.1
-26 -200 -3.3
-38.5 -210.5 -17.8
-40.5 -212 -17.8
-42 -212.5 -22.3
-43.5 -215 -22.3
-44.5 -215 -22.3
-44.5 -215.5 -20.1
-45 -215 -20.1
-45 -215 -20.1
-151.5 -163.5 -17.8
-45.5 -215 -22.3
-46 -215 -22.3
-45.5 -215.5 -22.3
-45.5 -215.5 -20.1
-45 -215.5 -17.8
-45 -215.5 -22.3
-45.5 -215 -22.3
-45.5 -215 -20.1
-45.5 -215.5 -20.1
-45.5 -215.5 -22.3
-45.5 -215.5 -20.1
-45.5 -215.5 -20.1
-45.5 -215 -22.3
-45.5 -215 -20.1
-46 -215 -22.3
-45.5 -215 -20.1
-45.5 -215 -20.1
-42.5 -213.5 -17.8
-39 -211.5 -17.8
-96 -235.5 -43
-96 -235.5 -44.9
-96.5 -235.5 -43
-5 -161.5 -57.4
6 -137 -79.2
15 -110.5 -83.3
16 -107 -41.1
16.5 -106 -89.9
15.5 -121.5 -89.9
-96 -235.5 -44.9
-96 -235.5 -43
-95.5 -235.5 -43
-95 -235.5 -43
-95 -235.5 -43
-94.5 -235.5 -43
-94 -235.5 -43
-93 -234.5 -41.1
-92 -234.5 -39.1
-90.5 -235 -41.1
-90 -234.5 -39.1
-13 -222 -31
-13 -222 -31
-13 -222 -31
-13 -222 -33.1
-13.5 -222 -31
-143 -136.5 -31
-142.5 -132 -31
-142 -135 -31
-13.5 -222.5 -31
-133 -169 -31
-14 -222.5 -31
-14 -222.5 -33.1
-14 -222 -33.1
-14.5 -222 -31
-107 -235 -41.1
-106 -229 -35.1
-106.5 -229.5 -35.1
-18 -223 -33.1
-18 -222 -33.1
-109 -230.5 -35.1
-15 -217 -24.6
-10.5 -206 -15.5
-5.5 -186.5 -65.7
-1 -166.5 -70.3
1 -149.5 -71.9
-1.5 -133 -68.8
-3 -132 -67.3
-7.5 -135.5 -60.8
-12 -147.5 -37.1
-16 -175.5 -35.1
-109 -231 -37.1
-109 -232 -35.1
-109 -232.5 -37.1
-107.5 -233 -39.1
-26 -220.5 -26.7
-29 -217.5 -22.3
-38.5 -212 -35.1
-39.5 -209 -13.1
-40 -210 -20.1
-41.5 -211 -17.8
-41.5 -211.5 -13.1
-42.5 -212.5 -17.8
-42.5 -213 -22.3
-43 -213.5 -22.3
-43.5 -212.5 -17.8
-43.5 -212 -15.5
-117 -217 -26.7
-44.5 -214 -17.8
-44 -211 -15.5
-46.5 -220 -26.7
-44.5 -219 -22.3
-80.5 -214.5 -20.1
-79.5 -214.5 -20.1
-25.5 -238 -48.6
-80 -213 -17.8
-79.5 -212 -17.8
-78.5 -213.5 -15.5
-78.5 -213.5 -17.8
-77.5 -214 -17.8
-76 -215 -20.1
-76 -214.5 -17.8
-76 -215.5 -22.3
-75 -214.5 -20.1
-75 -214.5 -22.3
-74.5 -215 -20.1
-74.5 -215.5 -20.1
-74.5 -215 -22.3
-74.5 -214.5 -17.8
-73.5 -214.5 -20.1
-73.5 -215.5 -20.1
-73 -215.5 -20.1
-18 -217 -26.7
-6 -218 -86
-73.5 -215.5 -20.1
-73.5 -215.5 -76.3
-72.5 -215 -73.4
44 -145.5 -20.1
44.5 -141.5 -17.8
42.5 -156 -17.8
41 -167 -55.7
-68.5 -215 -15.5
-67.5 -215 -17.8
-66.5 -215 -17.8
-68 -207.5 -5.8
52 -207.5 -13.1
52.5 -208 -15.5
-85 -150.5 -13.1
53.5 -209 -15.5
54.5 -209.5 -17.8
55.5 -209.5 -20.1
56 -210.5 -74.8
56.5 -210.5 -20.1
56.5 -210 -20.1
56 -209.5 -20.1
56 -209.5 -20.1
55.5 -209.5 -15.5
65 -191 1.4013e-45
55 -193.5 -3.3
55 -210 -20.1
55 -210 -20.1
55 -210 -20.1
-18.5 -219 -26.7
-19.5 -220 -28.9
57 -208.5 -15.5
-23 -222.5 -28.9
-24 -223.5 -31
-25 -223.5 -28.9
-25.5 -224 -31
67.5 -210.5 -22.3
-26.5 -224.5 -31
13 -235 -70.3
-3 -236.5 -93.7
-15 -236.5 -44.9
-20 -236 -44.9
-28 -225.5 -31
-26 -225.5 -33.1
-26 -226 -31
6.5 -229 -79.2
7 -231.5 -31
-25 -227 -80.6
-26.5 -226 -31
9.5 -230.5 -77.7
-25.5 -227.5 -76.3
6 -238 -71.9
6 -238 -77.7
-29.5 -226 -35.1
-32.5 -224 -26.7
-17.5 -76 -93.7
-18.5 -74.5 -91.2
-17.5 -83.5 -91.2
-70.5 -198.5 -39.1
-69 -199 -3.3
6 -231.5 -41.1
1.5 -229.5 -77.7
-68.5 -68.5 -26.7
-68 -199 -3.3
-68 -198.5 -17.8
-21 -189 -0.699997
-22 -183.5 1.4013e-45
-52.5 -56.5 1.4013e-45
-23 -183 2.5
21 39 -43
-22 -182.5 106.85
-22 -183 138.95
-22 -183 1.4013e-45
-76.5 17.5 1.4013e-45
-22 -183.5 1.4013e-45
-22.5 -183.5 177.5
-83.5 13 -43
12 47 -39.1
-22.5 -184.5 211.75
-22 -183.5 224.45
-22.5 -184.5 -44.9
-20.5 -183.5 211.75
-20 -183.5 -57.4
-19 -194 199.75
-20 -195.5 -52.2
-20 -195.5 -52.2
-58.5 -196 -0.699997
-19.5 -195.5 177.5
40 -36 -60.8
-17.5 -194 -50.4
-11.5 -191.5 -60.8
-59.5 -196 199.75
-166.5 92.5 199.75
-13 -193 211.75
-59 -197 -48.6
33.5 -122.5 188.35
35 -121.5 199.75
-58 -196.5 199.75
-17 -197 -3.3
-15 -197 -0.699997
-95 -147 -0.699997
-114 -145 -0.699997
-101.5 -187 -3.3
-99 -75 -3.3
-81 -78 -0.699997
-85.5 -83 -44.9
5 -81 -65.7
10.5 -83 -65.7
4.5 -85 -3.3
-0.5 -81 -8.29999
7.5 -75.5 1.4013e-45
15.5 -71 -60.8
11 -74.5 1.4013e-45
2 -82 -55.7
-11 -79.5 -48.6
-155.5 -81.5 -52.2
5 -80.5 -60.8
4 -76 -59.1
-13 -213 -22.3
-52 -200 -13.1
-13 -200.5 -5.8
-52.5 -198.5 -74.8
-53 -197 -3.3
-53 -197 -15.5
-52.5 -197.5 -17.8
-51.5 -198.5 -0.699997
-51 -198 -0.699997
26.5 -218.5 -24.6
-52.5 -200.5 -3.3
-51 -203 -8.29999
-60 -232 -39.1
28 -220 -22.3
-45 -237.5 -44.9
27 -220.5 -103.1
27 -221 -107.5
27.5 -221.5 -108.5
28 -222 -110.6
28 -222 -112.7
29 -221 -114.7
34.5 -220 -118.6
41 -219 -118.6
53.5 -220.5 -31
84 -227.5 -39.1
119.5 -225 -35.1
140 -214 1.4013e-45
158 -199 -182.7
171.5 -183.5 -174.6
191.5 -168.5 -165.3
193 -155 1.4013e-45
196 -150.5 1.4013e-45
196 -152 1.4013e-45
186 -168 -164.8
175.5 -182 -173.7
121.5 -232.5 -39.1
95 -238 -43
95 -238 -43
95 -238 -43
95 -238 -43
95 -238 -43
95 -238 -43
95 -238 -43
95 -238 -43
95 -238 -43
95 -238 -43
95 -238 -43
95 -238 -43
95 -238 -43
95 -238 -43
95 -238 -43
95 -238 -43
95 -238 -43
95 -238 -43
95 -238 -43
95 -238 -43
95 -238 -43
95 -238 -43
95 -238 -43
95 -238 -43
95 -238 -43
95 -238 -43
95 -238 -43
95 -238 -43
95 -238 -43
95 -238 -43
95 -238 -43
95 -238 -43
95 -238 -43
95 -238 -43
95 -238 -43
95 -238 -43
95 -238 -43
95 -238 -43
95 -238 -43
95 -238 -43
95 -238 -43
95 -238 -43
95 -238 -43
95 -238 -43
95 -238 -43
95 -238 -43
95 -238 -43
95 -238 -43
95 -238 -43
95 -238 -43
95 -238 -43
46 -113.5 -138.2
78 -99 -134.3
103.5 -73.5 -127.7
116 -41 1.4013e-45
120 -11.5 1.4013e-45
115.5 22.5 -132.7
112.5 32 -132.7
105.5 47 -133.5
99.5 58.5 -135.1
94.5 69 -132.7
91.5 75.5 -131
90 79 86
90 78.5 86
90.5 73 -129.4
88 75.5 -126.8
84 79.5 92.65
83 80.5 99.6
82 82.5 92.65
83 82.5 99.6
84.5 81.5 92.65
87 78.5 86
85 62 86
88 55.5 86
91 46 86
99 44.5 92.65
102.5 31.5 86
110.5 18.5 73.4
132.5 17 61.75
156.5 38 40.75
-6 -238 -24.6
-67.5 -111.5 -87.3
-6 -237.5 -17.8
-5.5 -236.5 -17.8
-75 -94.5 -15.5
-75 -93.5 -17.8
-37 -210 -17.8
-36.5 -210 -15.5
-36.5 -209.5 -15.5
22 -172.5 -59.1
25.5 -151.5 -77.7
19 -167.5 -54
-35 -210.5 -20.1
-1 -215 -70.3
-34.5 -209.5 -13.1
-61.5 -90 -15.5
-33 -211 -20.1
-38 -205 -8.29999
-56 -177.5 -67.3
-75.5 -154 -67.3
-86.5 -154 -67.3
-46.5 -95.5 -67.3
-3 -218.5 -67.3
-61.5 -93 -67.3
-63.5 -97.5 -37.1
-5 -219 -68.8
-3.5 -219.5 -70.3
-3.5 -220.5 -71.9
-5.5 -220.5 -24.6
-5.5 -221 67.45
-7.5 -215.5 -22.3
-27 -205.5 -13.1
-37.5 -208.5 -13.1
-38 -206.5 -13.1
-40.5 -206 -13.1
10.5 56.5 -54
-40 -205.5 -13.1
-38 -205.5 -10.7
-48 -231.5 -39.1
-48.5 -232.5 -39.1
44 -67.5 -79.2
-80 -93.5 -15.5
-38.5 -206 -15.5
-50 -227.5 -35.1
-79 -86.5 -35.1
-81.5 -87.5 -39.1
-87 -90.5 -39.1
-38.5 -205 -10.7
-27 -191.5 -41.1
-4 -196.5 -54
32.5 -210.5 -17.8
84 47 -94.9
52 59 -88.6
63 33 -94.9
70 30 -98.5
53 57.5 -92.4
61 60.5 -96.1
92 29.5 -103.1
-154.5 -39.5 -39.1
-129 -70.5 -77.7
71 -74 -79.2
50 -234.5 -80.6
55.5 -232 -79.2
-20.5 -66.5 -98.5
-44.5 -65.5 -35.1
67 -225 -37.1
61.5 -234.5 -44.9
56.5 -233 -41.1
-36.5 -231.5 -39.1
-40 -230 -83.3
-35 -237.5 -41.1
-33 -230 -39.1
-24 -230 -39.1
134.5 2 61.75
100 -194 -39.1
-18 -233 -43
-6.5 -40.5 -97.3
-83.5 -106.5 157.3
-80.5 -101 199.75
-66 -106 177.5
-56 -104.5 1.4013e-45
70.5 208.5 79.6
72.5 207.5 79.6
57.5 211.5 79.6
-54.5 -110 1.4013e-45
-57 -115 1.4013e-45
-59 -115 1.4013e-45
-67 -117.5 -41.1
-79 -119.5 -110.6
-81.5 -97.5 -112.7
-18.5 -52.5 -112.7
33.5 -113.5 -108.5
59 -112.5 -107.5
55 -110 -108.5
47 -111 -111.7
41.5 -112.5 -114.7
33 -113.5 -117.6
-219.5 62.5 177.5
14 -122 -112.7
-177.5 -82 1.4013e-45
-132 -119 1.4013e-45
-104.5 -121 1.4013e-45
-97 -120 1.4013e-45
-158.5 -19 99.6
-159 -13.5 199.75
-160.5 -11 106.85
-157.5 -12 188.35
-155 -10 167.15
-160.5 -10.5 99.6
-163 2 199.75
-166.5 20.5 199.75
-121.5 70 199.75
-89.5 80.5 211.75
-98 -123.5 188.35
-99 -122.5 -141.9
-101 -119 1.4013e-45
-100 -122.5 -92.4
-103 -121.5 -107.5
-105 -121.5 -108.5
-108 -121.5 -109.6
-109.5 -122.5 -111.7
-118 -121 -111.7
58.5 66.5 -112.7
-119.5 -127 -112.7
-121.5 -123.5 1.4013e-45
-120.5 -122 -108.5
23 41 -118.6
-113 -117 -124.1
41 -8 -127.7
42 -25.5 -130.2
-102 -118 -133.5
47.5 -56.5 -134.3
-93.5 -124.5 -134.3
-91.5 -129.5 -134.3
-90.5 -132.5 -133.5
-88.5 -136 -133.5
-86.5 -142.5 -133.5
-86.5 -140.5 -136.6
-83 -144 -142.6
-70 -130 -136.6
-62 -122 -136.6
-58.5 -119 -137.4
-57 -116 -139.7
-54.5 -106.5 -142.6
-53.5 -107 -148.1
-46 -104.5 -159.8
-52 -84.5 -147.5
90 -51 -170.4
102 -21.5 -161
113.5 33 -159.8
112.5 51 211.75
106.5 67 1.4013e-45
103.5 67.5 86
100.5 68 86
101 68.5 92.65
104.5 65 86
-133 51 79.6
-131 36 -135.9
107 26.5 -139.7
107.5 25.5 -140.4
106.5 31 -139.7
103.5 49 -138.2
101.5 59.5 -136.6
-142.5 83.5 199.75
-148 85.5 199.75
93.5 67.5 79.6
93.5 68 79.6
96.5 71 86
98.5 70 79.6
100 55 -136.6
-129 47 -139.7
-125.5 32.5 211.75
99.5 21 -140.4
100.5 25 -139.7
100.5 33 -138.9
99.5 56 -137.4
98 67.5 79.6
94 76 86
92.5 75.5 86
92.5 74 86
94 74 86
97.5 68.5 79.6
98 60.5 -137.4
97.5 43 -138.2
97 36 -138.9
96 34.5 -138.9
96 38.5 -138.9
96 53 -137.4
95 61.5 -136.6
92 71 86
92 71 79.6
93 67.5 86
95.5 67 86
102.5 65.5 -132.7
106.5 61.5 73.4
110.5 46 -164.2
-91.5 13.5 -133.5
-73.5 -14 -131
-58.5 -40.5 -158.1
-47.5 -62 -138.2
-42.5 -70.5 -146.1
50.5 -55.5 -160.4
35 -64 -156.3
33 -65 -161
-19 -112 -168.9
-14 -112.5 -175.1
-11.5 -113 -180.3
67 -74.5 -190.5
77 -83.5 -193.2
-1.5 -110 -188
103 -105.5 -192.6
115 -116 1.4013e-45
137.5 -133.5 1.4013e-45
150 -141 1.4013e-45
-1.5 -172 1.4013e-45
-12.5 -179 1.4013e-45
172 -156 1.4013e-45
147.5 -167.5 1.4013e-45
120 -180 1.4013e-45
90 -193 1.4013e-45
54.5 -202.5 1.4013e-45
18 -213 1.4013e-45
-33.5 -203 1.4013e-45
-100.5 -231 1.4013e-45
-100.5 -231 1.4013e-45
-100.5 -231 1.4013e-45
-100.5 -231 1.4013e-45
-171.5 -237 -44.9
-171.5 -237 -44.9
-171.5 -237 -44.9
-171.5 -237 -44.9
-171.5 -237 -44.9
-171.5 -237 -44.9
-171.5 -237 -44.9
-171.5 -237 -44.9
-171.5 -237 -44.9
-171.5 -237 -44.9
-171.5 -237 -44.9
-171.5 -237 -44.9
-171.5 -237 -44.9
-171.5 -237 -44.9
-171.5 -237 -44.9
-171.5 -237 -44.9
-171.5 -237 -44.9
-171.5 -237 -44.9
-171.5 -237 -44.9
-171.5 -237 -44.9
-171.5 -237 -44.9
-171.5 -237 -44.9
-171.5 -237 -44.9
-171.5 -237 -44.9
-171.5 -237 -44.9
-171.5 -237 -44.9
-171.5 -237 -44.9
-171.5 -237 -44.9
-171.5 -237 -44.9
-171.5 -237 -44.9
-171.5 -237 -44.9
-171.5 -237 -44.9
-171.5 -237 -44.9
-171.5 -237 -44.9
-171.5 -237 -44.9
-171.5 -237 -44.9
-171.5 -237 -44.9
-171.5 -237 -44.9
-171.5 -237 -44.9
-171.5 -237 -44.9
-171.5 -237 -44.9
-171.5 -237 -44.9
-171.5 -237 -44.9
-171.5 -237 -44.9
-171.5 -237 -44.9
-171.5 -237 -44.9
-171.5 -237 -44.9
-171.5 -237 -44.9
-171.5 -237 -44.9
-171.5 -237 -44.9
-171.5 -237 -44.9
-171.5 -237 -44.9
-171.5 -237 -44.9
-171.5 -237 -44.9
-171.5 -237 -44.9
-171.5 -237 -44.9
-171.5 -237 -44.9
-171.5 -237 -44.9
-171.5 -237 -44.9
-171.5 -237 -44.9
-171.5 -237 -44.9
-171.5 -237 -44.9
-171.5 -237 -44.9
-171.5 -237 -44.9
-171.5 -237 -44.9
-171.5 -237 -44.9
-171.5 -237 -44.9
-171.5 -237 -44.9
-171.5 -237 -44.9
-171.5 -237 -44.9
-171.5 -237 -44.9
-171.5 -237 -44.9
-171.5 -237 -44.9
-171.5 -237 -44.9
-171.5 -237 -44.9
-171.5 -237 -44.9
-171.5 -237 -44.9
-171.5 -237 -44.9
-171.5 -237 -44.9
-171.5 -237 -44.9
-171.5 -237 -44.9
-171.5 -237 -44.9
-171.5 -237 -44.9
-171.5 -237 -44.9
-171.5 -237 -44.9
-171.5 -237 -44.9
-171.5 -237 -44.9
-171.5 -237 -44.9
-171.5 -237 -44.9
-171.5 -237 -44.9
-171.5 -237 -44.9
-171.5 -237 -44.9
-171.5 -237 -44.9
-171.5 -237 -44.9
-171.5 -237 -44.9
-171.5 -237 -44.9
-171.5 -237 -44.9
-171.5 -237 -44.9
-171.5 -237 -44.9
-171.5 -237 -44.9
-171.5 -237 -44.9
-171.5 -237 -44.9
-171.5 -237 -44.9
-171.5 -237 -44.9
-171.5 -237 -44.9
-171.5 -237 -44.9
-171.5 -237 -44.9
-171.5 -237 -44.9
-171.5 -237 -44.9
-171.5 -237 -44.9
-171.5 -237 -44.9
-171.5 -237 -44.9
-171.5 -237 -44.9
-171.5 -237 -44.9
-171.5 -237 -44.9
-171.5 -237 -44.9
-171.5 -237 -44.9
-171.5 -237 -44.9
-171.5 -237 -44.9
-171.5 -237 -44.9
-171.5 -237 -44.9
-171.5 -237 -44.9
-171.5 -237 -44.9
-171.5 -237 -44.9
-171.5 -237 -44.9
-171.5 -237 -44.9
-171.5 -237 -44.9
-171.5 -237 -44.9
-171.5 -237 -44.9
-171.5 -237 -44.9
-171.5 -237 -44.9
-171.5 -237 -44.9
-171.5 -237 -44.9
-171.5 -237 -44.9
-171.5 -237 -44.9
-171.5 -237 -44.9
-171.5 -237 -44.9
-171.5 -237 -44.9
-171.5 -237 -44.9
-171.5 -237 -44.9
-171.5 -237 -44.9
-171.5 -237 -44.9
-171.5 -237 -44.9
-171.5 -237 -44.9
-171.5 -237 -44.9
-171.5 -237 -44.9
-171.5 -237 -44.9
-171.5 -237 -44.9
-171.5 -237 -44.9
-171.5 -237 -44.9
-171.5 -237 -44.9
-171.5 -237 -44.9
-171.5 -237 -44.9
-171.5 -237 -44.9
-171.5 -237 -44.9
-171.5 -237 -44.9
-171.5 -237 -44.9
-171.5 -237 -44.9
-171.5 -237 -44.9
-171.5 -237 -44.9
-171.5 -237 -44.9
-171.5 -237 -44.9
-171.5 -237 -44.9
-171.5 -237 -44.9
-171.5 -237 -44.9
-171.5 -237 -44.9
-171.5 -237 -44.9
-171.5 -237 -44.9
-171.5 -237 -44.9
-171.5 -237 -44.9
-171.5 -237 -44.9
-171.5 -237 -44.9
-171.5 -237 -44.9
-171.5 -237 -44.9
-171.5 -237 -44.9
-171.5 -237 -44.9
-171.5 -237 -44.9
-171.5 -237 -44.9
-171.5 -237 -44.9
-171.5 -237 -44.9
-171.5 -237 -44.9
-171.5 -237 -44.9
-171.5 -237 -44.9
-171.5 -237 -44.9
-171.5 -237 -44.9
-171.5 -237 -44.9
-171.5 -237 -44.9
-171.5 -237 -44.9
-171.5 -237 -44.9
-171.5 -237 -44.9
-171.5 -237 -44.9
-171.5 -237 -44.9
-171.5 -237 -44.9
-171.5 -237 -44.9
-171.5 -237 -44.9
-171.5 -237 -44.9
-171.5 -237 -44.9
-171.5 -237 -44.9
-171.5 -237 -44.9
-171.5 -237 -44.9
-171.5 -237 -44.9
-171.5 -237 -44.9
-171.5 -237 -44.9
-171.5 -237 -44.9
-171.5 -237 -44.9
-171.5 -237 -44.9
-171.5 -237 -44.9
-171.5 -237 -44.9
-171.5 -237 -44.9
-171.5 -237 -44.9
-171.5 -237 -44.9
-171.5 -237 -44.9
-171.5 -237 -44.9
-171.5 -237 -44.9
-171.5 -237 -44.9
-171.5 -237 -44.9
-171.5 -237 -44.9
-171.5 -237 -44.9
-171.5 -237 -44.9
-171.5 -237 -44.9
-171.5 -237 -44.9
-171.5 -237 -44.9
-171.5 -237 -44.9
-171.5 -237 -44.9
-171.5 -237 -44.9
-171.5 -237 -44.9
-171.5 -237 -44.9
-171.5 -237 -44.9
-171.5 -237 -44.9
-171.5 -237 -44.9
-171.5 -237 -44.9
-171.5 -237 -44.9
-171.5 -237 -44.9
-171.5 -237 -44.9
-171.5 -237 -44.9
-171.5 -237 -44.9
-171.5 -237 -44.9
-171.5 -237 -44.9
-171.5 -237 -44.9
-171.5 -237 -44.9
-171.5 -237 -44.9
-171.5 -237 -44.9
-171.5 -237 -44.9
-171.5 -237 -44.9
-171.5 -237 -44.9
-171.5 -237 -44.9
-171.5 -237 -44.9
-171.5 -237 -44.9
-171.5 -237 -44.9
-171.5 -237 -44.9
-171.5 -237 -44.9
-171.5 -237 -44.9
-171.5 -237 -44.9
-171.5 -237 -44.9
-171.5 -237 -44.9
-171.5 -237 -44.9
-171.5 -237 -44.9
-171.5 -237 -44.9
-171.5 -237 -44.9
-171.5 -237 -44.9
-171.5 -237 -44.9
-171.5 -237 -44.9
-171.5 -237 -44.9
-171.5 -237 -44.9
-171.5 -237 -44.9
-171.5 -237 -44.9
-171.5 -237 -44.9
-171.5 -237 -44.9
-171.5 -237 -44.9
-171.5 -237 -44.9
-171.5 -237 -44.9
-171.5 -237 -44.9
-171.5 -237 -44.9
-171.5 -237 -44.9
-171.5 -237 -44.9
-171.5 -237 -44.9
-171.5 -237 -44.9
-171.5 -237 -44.9
-171.5 -237 -44.9
-171.5 -237 -44.9
-171.5 -237 -44.9
-171.5 -237 -44.9
-171.5 -237 -44.9
-171.5 -237 -44.9
-171.5 -237 -44.9
-171.5 -237 -44.9
-171.5 -237 -44.9
-171.5 -237 -44.9
-171.5 -237 -44.9
-171.5 -237 -44.9
-171.5 -237 -44.9
-171.5 -237 -44.9
-171.5 -237 -44.9
-171.5 -237 -44.9
-171.5 -237 -44.9
-171.5 -237 -44.9
-171.5 -237 -44.9
-171.5 -237 -44.9
-171.5 -237 -44.9
-171.5 -237 -44.9
-171.5 -237 -44.9
-171.5 -237 -44.9
-171.5 -237 -44.9
-171.5 -237 -44.9
-171.5 -237 -44.9
-171.5 -237 -44.9
-171.5 -237 -44.9
-171.5 -237 -44.9
-171.5 -237 -44.9
-171.5 -237 -44.9
-171.5 -237 -44.9
-171.5 -237 -44.9
-171.5 -237 -44.9
-171.5 -237 -44.9
-171.5 -237 -44.9
-171.5 -237 -44.9
-171.5 -237 -44.9
-171.5 -237 -44.9
-171.5 -237 -44.9
-171.5 -237 -44.9
-171.5 -237 -44.9
-171.5 -237 -44.9
-171.5 -237 -44.9
-171.5 -237 -44.9
-171.5 -237 -44.9
-171.5 -237 -44.9
-171.5 -237 -44.9
-171.5 -237 -44.9
-171.5 -237 -44.9
-171.5 -237 -44.9
-171.5 -237 -44.9
-171.5 -237 -44.9
-171.5 -237 -44.9
-171.5 -237 -44.9
-171.5 -237 -44.9
-171.5 -237 -44.9
-171.5 -237 -44.9
-171.5 -237 -44.9
-171.5 -237 -44.9
-171.5 -237 -44.9
-171.5 -237 -44.9
-171.5 -237 -44.9
-171.5 -237 -44.9
-171.5 -237 -44.9
-171.5 -237 -44.9
-171.5 -237 -44.9
-171.5 -237 -44.9
-171.5 -237 -44.9
-171.5 -237 -44.9
-171.5 -237 -44.9
-171.5 -237 -44.9
-171.5 -237 -44.9
-171.5 -237 -44.9
-171.5 -237 -44.9
-171.5 -237 -44.9
-171.5 -237 -44.9
-171.5 -237 -44.9
-171.5 -237 -44.9
-171.5 -237 -44.9
-171.5 -237 -44.9
-171.5 -237 -44.9
-171.5 -237 -44.9
-171.5 -237 -44.9
-171.5 -237 -44.9
-171.5 -237 -44.9
-171.5 -237 -44.9
-171.5 -237 -44.9
-171.5 -237 -44.9
-171.5 -237 -44.9
-171.5 -237 -44.9
-171.5 -237 -44.9
-171.5 -237 -44.9
-171.5 -237 -44.9
-171.5 -237 -44.9
-171.5 -237 -44.9
-171.5 -237 -44.9
-171.5 -237 -44.9
-171.5 -237 -44.9
-171.5 -237 -44.9
-171.5 -237 -44.9
-171.5 -237 -44.9
-171.5 -237 -44.9
-171.5 -237 -44.9
-171.5 -237 -44.9
-171.5 -237 -44.9
-171.5 -237 -44.9
-171.5 -237 -44.9
-171.5 -237 -44.9
-171.5 -237 -44.9
-171.5 -237 -44.9
-171.5 -237 -44.9
-171.5 -237 -44.9
-171.5 -237 -44.9
-171.5 -237 -44.9
-171.5 -237 -44.9
-171.5 -237 -44.9
-171.5 -237 -44.9
-171.5 -237 -44.9
-171.5 -237 -44.9
-171.5 -237 -44.9
-171.5 -237 -44.9
-171.5 -237 -44.9
-171.5 -237 -44.9
-171.5 -237 -44.9
-171.5 -237 -44.9
-171.5 -237 -44.9
-171.5 -237 -44.9
-171.5 -237 -44.9
-171.5 -237 -44.9
-171.5 -237 -44.9
-171.5 -237 -44.9
-171.5 -237 -44.9
-171.5 -237 -44.9
-171.5 -237 -44.9
-171.5 -237 -44.9
-171.5 -237 -44.9
-171.5 -237 -44.9
-171.5 -237 -44.9
-171.5 -237 -44.9
-171.5 -237 -44.9
-171.5 -237 -44.9
-171.5 -237 -44.9
-171.5 -237 -44.9
-171.5 -237 -44.9
-171.5 -237 -44.9
-171.5 -237 -44.9
-171.5 -237 -44.9
-171.5 -237 -44.9
-171.5 -237 -44.9
-171.5 -237 -44.9
-171.5 -237 -44.9
-171.5 -237 -44.9
-171.5 -237 -44.9
-171.5 -237 -44.9
-171.5 -237 -44.9
-171.5 -237 -44.9
-171.5 -237 -44.9
-171.5 -237 -44.9
-171.5 -237 -44.9
-171.5 -237 -44.9
-171.5 -237 -44.9
-171.5 -237 -44.9
-171.5 -237 -44.9
-171.5 -237 -44.9
-171.5 -237 -44.9
-171.5 -237 -44.9
-171.5 -237 -44.9
-171.5 -237 -44.9
-171.5 -237 -44.9
-171.5 -237 -44.9
-171.5 -237 -44.9
-171.5 -237 -44.9
-171.5 -237 -44.9
-171.5 -237 -44.9
-171.5 -237 -44.9
-171.5 -237 -44.9
-171.5 -237 -44.9
-171.5 -237 -44.9
-171.5 -237 -44.9
-171.5 -237 -44.9
-171.5 -237 -44.9
-171.5 -237 -44.9
-171.5 -237 -44.9
-171.5 -237 -44.9
-171.5 -237 -44.9
-171.5 -237 -44.9
-171.5 -237 -44.9
-171.5 -237 -44.9
-171.5 -237 -44.9
-171.5 -237 -44.9
-171.5 -237 -44.9
-171.5 -237 -44.9
-171.5 -237 -44.9
-171.5 -237 -44.9
-171.5 -237 -44.9
-171.5 -237 -44.9
-171.5 -237 -44.9
-171.5 -237 -44.9
-171.5 -237 -44.9
-171.5 -237 -44.9
-171.5 -237 -44.9
-171.5 -237 -44.9
-171.5 -237 -44.9
-171.5 -237 -44.9
-171.5 -237 -44.9
-171.5 -237 -44.9
-171.5 -237 -44.9
-171.5 -237 -44.9
-171.5 -237 -44.9
-171.5 -237 -44.9
-171.5 -237 -44.9
-171.5 -237 -44.9
-171.5 -237 -44.9
-171.5 -237 -44.9
-171.5 -237 -44.9
-171.5 -237 -44.9
-171.5 -237 -44.9
-171.5 -237 -44.9
-171.5 -237 -44.9
-171.5 -237 -44.9
-171.5 -237 -44.9
-171.5 -237 -44.9
-171.5 -237 -44.9
-171.5 -237 -44.9
-171.5 -237 -44.9
-171.5 -237 -44.9
-171.5 -237 -44.9
-171.5 -237 -44.9
-171.5 -237 -44.9
-171.5 -237 -44.9
-171.5 -237 -44.9
-171.5 -237 -44.9
-171.5 -237 -44.9
-171.5 -237 -44.9
-171.5 -237 -44.9
-171.5 -237 -44.9
-171.5 -237 -44.9
-171.5 -237 -44.9
-171.5 -237 -44.9
-171.5 -237 -44.9
-171.5 -237 -44.9
-171.5 -237 -44.9
-171.5 -237 -44.9
-171.5 -237 -44.9
-171.5 -237 -44.9
-171.5 -237 -44.9
-171.5 -237 -44.9
-171.5 -237 -44.9
-171.5 -237 -44.9
-171.5 -237 -44.9
-171.5 -237 -44.9
-171.5 -237 -44.9
-171.5 -237 -44.9
-171.5 -237 -44.9
-171.5 -237 -44.9
-171.5 -237 -44.9
-171.5 -237 -44.9
-171.5 -237 -44.9
-171.5 -237 -44.9
-171.5 -237 -44.9
-171.5 -237 -44.9
-171.5 -237 -44.9
-171.5 -237 -44.9
-171.5 -237 -44.9
-171.5 -237 -44.9
-171.5 -237 -44.9
-171.5 -237 -44.9
-171.5 -237 -44.9
-171.5 -237 -44.9
-171.5 -237 -44.9
-171.5 -237 -44.9
-171.5 -237 -44.9
-171.5 -237 -44.9
-171.5 -237 -44.9
-171.5 -237 -44.9
-171.5 -237 -44.9
-171.5 -237 -44.9
-171.5 -237 -44.9
-171.5 -237 -44.9
-171.5 -237 -44.9
-171.5 -237 -44.9
-171.5 -237 -44.9
-171.5 -237 -44.9
-171.5 -237 -44.9
-171.5 -237 -44.9
-171.5 -237 -44.9
-171.5 -237 -44.9
-171.5 -237 -44.9
-171.5 -237 -44.9
-171.5 -237 -44.9
-171.5 -237 -44.9
-171.5 -237 -44.9
-171.5 -237 -44.9
-171.5 -237 -44.9
-171.5 -237 -44.9
-171.5 -237 -44.9
-171.5 -237 -44.9
-171.5 -237 -44.9
-171.5 -237 -44.9
-171.5 -237 -44.9
-171.5 -237 -44.9
-171.5 -237 -44.9
-171.5 -237 -44.9
-171.5 -237 -44.9
-171.5 -237 -44.9
-171.5 -237 -44.9
-171.5 -237 -44.9
-171.5 -237 -44.9
-171.5 -237 -44.9
-171.5 -237 -44.9
-171.5 -237 -44.9
-171.5 -237 -44.9
-171.5 -237 -44.9
-171.5 -237 -44.9
-171.5 -237 -44.9
-171.5 -237 -44.9
-171.5 -237 -44.9
-171.5 -237 -44.9
-171.5 -237 -44.9
-171.5 -237 -44.9
-171.5 -237 -44.9
-171.5 -237 -44.9
-171.5 -237 -44.9
-171.5 -237 -44.9
-171.5 -237 -44.9
-171.5 -237 -44.9
-171.5 -237 -44.9
-171.5 -237 -44.9
-171.5 -237 -44.9
-171.5 -237 -44.9
-171.5 -237 -44.9
-171.5 -237 -44.9
-171.5 -237 -44.9
-171.5 -237 -44.9
-171.5 -237 -44.9
-171.5 -237 -44.9
-171.5 -237 -44.9
-171.5 -237 -44.9
-171.5 -237 -44.9
-171.5 -237 -44.9
-171.5 -237 -44.9
-171.5 -237 -44.9
-171.5 -237 -44.9
-171.5 -237 -44.9
-171.5 -237 -44.9
-171.5 -237 -44.9
-171.5 -237 -44.9
-171.5 -237 -44.9
-171.5 -237 -44.9
-171.5 -237 -44.9
-171.5 -237 -44.9
-171.5 -237 -44.9
-171.5 -237 -44.9
-171.5 -237 -44.9
-171.5 -237 -44.9
-171.5 -237 -44.9
-171.5 -237 -44.9
-171.5 -237 -44.9
-171.5 -237 -44.9
-171.5 -237 -44.9
-171.5 -237 -44.9
-171.5 -237 -44.9
-171.5 -237 -44.9
-171.5 -237 -44.9
-171.5 -237 -44.9
-171.5 -237 -44.9
-171.5 -237 -44.9
-171.5 -237 -44.9
-171.5 -237 -44.9
-171.5 -237 -44.9
-171.5 -237 -44.9
-171.5 -237 -44.9
-171.5 -237 -44.9
-171.5 -237 -44.9
-171.5 -237 -44.9
-171.5 -237 -44.9
-171.5 -237 -44.9
-171.5 -237 -44.9
-171.5 -237 -44.9
-171.5 -237 -44.9
-171.5 -237 -44.9
-171.5 -237 -44.9
-171.5 -237 -44.9
-171.5 -237 -44.9
-171.5 -237 -44.9
-171.5 -237 -44.9
-171.5 -237 -44.9
-171.5 -237 -44.9
-171.5 -237 -44.9
-171.5 -237 -44.9
-171.5 -237 -44.9
-171.5 -237 -44.9
-171.5 -237 -44.9
-171.5 -237 -44.9
-171.5 -237 -44.9
-171.5 -237 -44.9
-171.5 -237 -44.9
-171.5 -237 -44.9
-171.5 -237 -44.9
-171.5 -237 -44.9
-171.5 -237 -44.9
-171.5 -237 -44.9
-171.5 -237 -44.9
-171.5 -237 -44.9
-171.5 -237 -44.9
-171.5 -237 -44.9
-171.5 -237 -44.9
-171.5 -237 -44.9
-171.5 -237 -44.9
-171.5 -237 -44.9
-171.5 -237 -44.9
-171.5 -237 -44.9
-171.5 -237 -44.9
-171.5 -237 -44.9
-171.5 -237 -44.9
-171.5 -237 -44.9
-171.5 -237 -44.9
-171.5 -237 -44.9
-171.5 -237 -44.9
-171.5 -237 -44.9
-171.5 -237 -44.9
-171.5 -237 -44.9
-171.5 -237 -44.9
-171.5 -237 -44.9
-171.5 -237 -44.9
-171.5 -237 -44.9
-171.5 -237 -44.9
-171.5 -237 -44.9
-171.5 -237 -44.9
-171.5 -237 -44.9
-171.5 -237 -44.9
-171.5 -237 -44.9
-171.5 -237 -44.9
-171.5 -237 -44.9
-171.5 -237 -44.9
-171.5 -237 -44.9
-171.5 -237 -44.9
-171.5 -237 -44.9
-171.5 -237 -44.9
-171.5 -237 -44.9
-171.5 -237 -44.9
-171.5 -237 -44.9
-171.5 -237 -44.9
-171.5 -237 -44.9
-171.5 -237 -44.9
-171.5 -237 -44.9
-171.5 -237 -44.9
-171.5 -237 -44.9
-171.5 -237 -44.9
-171.5 -237 -44.9
-171.5 -237 -44.9
-171.5 -237 -44.9
-171.5 -237 -44.9
-171.5 -237 -44.9
-171.5 -237 -44.9
-171.5 -237 -44.9
-171.5 -237 -44.9
-171.5 -237 -44.9
-171.5 -237 -44.9
-171.5 -237 -44.9
-171.5 -237 -44.9
-171.5 -237 -44.9
-171.5 -237 -44.9
-171.5 -237 -44.9
-171.5 -237 -44.9
-171.5 -237 -44.9
-171.5 -237 -44.9
-171.5 -237 -44.9
-171.5 -237 -44.9
-171.5 -237 -44.9
-171.5 -237 -44.9
-171.5 -237 -44.9
-171.5 -237 -44.9
-171.5 -237 -44.9
-171.5 -237 -44.9
-171.5 -237 -44.9
-171.5 -237 -44.9
-171.5 -237 -44.9
-171.5 -237 -44.9
-171.5 -237 -44.9
-171.5 -237 -44.9
-171.5 -237 -44.9
-171.5 -237 -44.9
-171.5 -237 -44.9
-171.5 -237 -44.9
-171.5 -237 -44.9
-171.5 -237 -44.9
-171.5 -237 -44.9
-171.5 -237 -44.9
-171.5 -237 -44.9
-171.5 -237 -44.9
-171.5 -237 -44.9
-171.5 -237 -44.9
-171.5 -237 -44.9
-171.5 -237 -44.9
-171.5 -237 -44.9
-171.5 -237 -44.9
-171.5 -237 -44.9
-171.5 -237 -44.9
-171.5 -237 -44.9
-171.5 -237 -44.9
-171.5 -237 -44.9
-171.5 -237 -44.9
-171.5 -237 -44.9
-171.5 -237 -44.9
-171.5 -237 -44.9
-171.5 -237 -44.9
-171.5 -237 -44.9
-171.5 -237 -44.9
-171.5 -237 -44.9
-171.5 -237 -44.9
-171.5 -237 -44.9
-171.5 -237 -44.9
-171.5 -237 -44.9
-171.5 -237 -44.9
-171.5 -237 -44.9
-171.5 -237 -44.9
-171.5 -237 -44.9
-171.5 -237 -44.9
-171.5 -237 -44.9
-171.5 -237 -44.9
-171.5 -237 -44.9
-171.5 -237 -44.9
-171.5 -237 -44.9
-171.5 -237 -44.9
-171.5 -237 -44.9
-171.5 -237 -44.9
-171.5 -237 -44.9
-171.5 -237 -44.9
-171.5 -237 -44.9
-171.5 -237 -44.9
-171.5 -237 -44.9
-171.5 -237 -44.9
-171.5 -237 -44.9
-171.5 -237 -44.9
-171.5 -237 -44.9
-171.5 -237 -44.9
-171.5 -237 -44.9
-171.5 -237 -44.9
-171.5 -237 -44.9
-171.5 -237 -44.9
-171.5 -237 -44.9
-171.5 -237 -44.9
-171.5 -237 -44.9
-171.5 -237 -44.9
-171.5 -237 -44.9
-171.5 -237 -44.9
-171.5 -237 -44.9
-171.5 -237 -44.9
-171.5 -237 -44.9
-171.5 -237 -44.9
-171.5 -237 -44.9
-171.5 -237 -44.9
-171.5 -237 -44.9
-171.5 -237 -44.9
-171.5 -237 -44.9
-171.5 -237 -44.9
-171.5 -237 -44.9
-171.5 -237 -44.9
-171.5 -237 -44.9
-171.5 -237 -44.9
-171.5 -237 -44.9
-171.5 -237 -44.9
-171.5 -237 -44.9
-171.5 -237 -44.9
-171.5 -237 -44.9
-171.5 -237 -44.9
-171.5 -237 -44.9
-171.5 -237 -44.9
-171.5 -237 -44.9
-171.5 -237 -44.9
-171.5 -237 -44.9
-171.5 -237 -44.9
-171.5 -237 -44.9
-171.5 -237 -44.9
-171.5 -237 -44.9
-171.5 -237 -44.9
-171.5 -237 -44.9
-171.5 -237 -44.9
-171.5 -237 -44.9
-171.5 -237 -44.9
-171.5 -237 -44.9
-171.5 -237 -44.9
-171.5 -237 -44.9
-171.5 -237 -44.9
-171.5 -237 -44.9
-171.5 -237 -44.9
-171.5 -237 -44.9
-171.5 -237 -44.9
-171.5 -237 -44.9
-171.5 -237 -44.9
-171.5 -237 -44.9
-171.5 -237 -44.9
-171.5 -237 -44.9
-171.5 -237 -44.9
-171.5 -237 -44.9
-171.5 -237 -44.9
-171.5 -237 -44.9
-171.5 -237 -44.9
-171.5 -237 -44.9
-171.5 -237 -44.9
-171.5 -237 -44.9
-171.5 -237 -44.9
-171.5 -237 -44.9
-171.5 -237 -44.9
-171.5 -237 -44.9
-171.5 -237 -44.9
-171.5 -237 -44.9
-171.5 -237 -44.9
-171.5 -237 -44.9
-171.5 -237 -44.9
-171.5 -237 -44.9
-171.5 -237 -44.9
-171.5 -237 -44.9
-171.5 -237 -44.9
-171.5 -237 -44.9
-171.5 -237 -44.9
-171.5 -237 -44.9
-171.5 -237 -44.9
-171.5 -237 -44.9
-171.5 -237 -44.9
-171.5 -237 -44.9
-171.5 -237 -44.9
-171.5 -237 -44.9
-171.5 -237 -44.9
-171.5 -237 -44.9
-171.5 -237 -44.9
-171.5 -237 -44.9
-171.5 -237 -44.9
-171.5 -237 -44.9
-171.5 -237 -44.9
-171.5 -237 -44.9
-171.5 -237 -44.9
-171.5 -237 -44.9
-171.5 -237 -44.9
-171.5 -237 -44.9
-171.5 -237 -44.9
-171.5 -237 -44.9
-171.5 -237 -44.9
-171.5 -237 -44.9
-171.5 -237 -44.9
-171.5 -237 -44.9
-171.5 -237 -44.9
-171.5 -237 -44.9
-171.5 -237 -44.9
-171.5 -237 -44.9
-171.5 -237 -44.9
-171.5 -237 -44.9
-171.5 -237 -44.9
-171.5 -237 -44.9
-171.5 -237 -44.9
-171.5 -237 -44.9
-171.5 -237 -44.9
-171.5 -237 -44.9
-171.5 -237 -44.9
-171.5 -237 -44.9
-171.5 -237 -44.9
-171.5 -237 -44.9
-171.5 -237 -44.9
-171.5 -237 -44.9
-171.5 -237 -44.9
-171.5 -237 -44.9
-171.5 -237 -44.9
-171.5 -237 -44.9
-171.5 -237 -44.9
-171.5 -237 -44.9
-171.5 -237 -44.9
-171.5 -237 -44.9
-171.5 -237 -44.9
-171.5 -237 -44.9
-171.5 -237 -44.9
-171.5 -237 -44.9
-171.5 -237 -44.9
-171.5 -237 -44.9
-171.5 -237 -44.9
-171.5 -237 -44.9
-171.5 -237 -44.9
-171.5 -237 -44.9
-171.5 -237 -44.9
-171.5 -237 -44.9
-171.5 -237 -44.9
-171.5 -237 -44.9
-171.5 -237 -44.9
-171.5 -237 -44.9
-171.5 -237 -44.9
-171.5 -237 -44.9
-171.5 -237 -44.9
-171.5 -237 -44.9
-171.5 -237 -44.9
-171.5 -237 -44.9
-171.5 -237 -44.9
-171.5 -237 -44.9
-171.5 -237 -44.9
-171.5 -237 -44.9
-171.5 -237 -44.9
-171.5 -237 -44.9
-171.5 -237 -44.9
-171.5 -237 -44.9
-171.5 -237 -44.9
-171.5 -237 -44.9
-171.5 -237 -44.9
-171.5 -237 -44.9
-171.5 -237 -44.9
-171.5 -237 -44.9
-171.5 -237 -44.9
-171.5 -237 -44.9
-171.5 -237 -44.9
-171.5 -237 -44.9
-171.5 -237 -44.9
-171.5 -237 -44.9
-171.5 -237 -44.9
-171.5 -237 -44.9
-171.5 -237 -44.9
-171.5 -237 -44.9
-171.5 -237 -44.9
-171.5 -237 -44.9
-171.5 -237 -44.9
-171.5 -237 -44.9
-171.5 -237 -44.9
-171.5 -237 -44.9
-171.5 -237 -44.9
-171.5 -237 -44.9
-171.5 -237 -44.9
-171.5 -237 -44.9
-171.5 -237 -44.9
-171.5 -237 -44.9
-171.5 -237 -44.9
-171.5 -237 -44.9
-171.5 -237 -44.9
-171.5 -237 -44.9
-171.5 -237 -44.9
-171.5 -237 -44.9
-171.5 -237 -44.9
-171.5 -237 -44.9
-171.5 -237 -44.9
-171.5 -237 -44.9
-171.5 -237 -44.9
-171.5 -237 -44.9
-171.5 -237 -44.9
-171.5 -237 -44.9
-171.5 -237 -44.9
-171.5 -237 -44.9
-171.5 -237 -44.9
-171.5 -237 -44.9
-171.5 -237 -44.9
-171.5 -237 -44.9
-171.5 -237 -44.9
-171.5 -237 -44.9
-171.5 -237 -44.9
-171.5 -237 -44.9
-171.5 -237 -44.9
-171.5 -237 -44.9
-171.5 -237 -44.9
-171.5 -237 -44.9
-171.5 -237 -44.9
-171.5 -237 -44.9
-171.5 -237 -44.9
-171.5 -237 -44.9
-171.5 -237 -44.9
-171.5 -237 -44.9
-171.5 -237 -44.9
-171.5 -237 -44.9
-171.5 -237 -44.9
-171.5 -237 -44.9
-171.5 -237 -44.9
-171.5 -237 -44.9
-171.5 -237 -44.9
-171.5 -237 -44.9
-171.5 -237 -44.9
-171.5 -237 -44.9
-171.5 -237 -44.9
-171.5 -237 -44.9
-171.5 -237 -44.9
-171.5 -237 -44.9
-171.5 -237 -44.9
-171.5 -237 -44.9
-171.5 -237 -44.9
-171.5 -237 -44.9
-171.5 -237 -44.9
-171.5 -237 -44.9
-171.5 -237 -44.9
-171.5 -237 -44.9
-171.5 -237 -44.9
-171.5 -237 -44.9
-171.5 -237 -44.9
-171.5 -237 -44.9
-171.5 -237 -44.9
-171.5 -237 -44.9
-171.5 -237 -44.9
-171.5 -237 -44.9
-171.5 -237 -44.9
-171.5 -237 -44.9
-171.5 -237 -44.9
-171.5 -237 -44.9
-171.5 -237 -44.9
-171.5 -237 -44.9
-171.5 -237 -44.9
-171.5 -237 -44.9
-171.5 -237 -44.9
-171.5 -237 -44.9
-171.5 -237 -44.9
-171.5 -237 -44.9
-171.5 -237 -44.9
-171.5 -237 -44.9
-171.5 -237 -44.9
-171.5 -237 -44.9
-171.5 -237 -44.9
-171.5 -237 -44.9
-171.5 -237 -44.9
-171.5 -237 -44.9
-171.5 -237 -44.9
-171.5 -237 -44.9
-171.5 -237 -44.9
-171.5 -237 -44.9
-171.5 -237 -44.9
-171.5 -237 -44.9
-171.5 -237 -44.9
-171.5 -237 -44.9
-171.5 -237 -44.9
-171.5 -237 -44.9
-171.5 -237 -44.9
-171.5 -237 -44.9
-171.5 -237 -44.9
-171.5 -237 -44.9
-171.5 -237 -44.9
-171.5 -237 -44.9
-171.5 -237 -44.9
-171.5 -237 -44.9
-171.5 -237 -44.9
-171.5 -237 -44.9
-171.5 -237 -44.9
-171.5 -237 -44.9
-171.5 -237 -44.9
-171.5 -237 -44.9
-171.5 -237 -44.9
-171.5 -237 -44.9
-171.5 -237 -44.9
-171.5 -237 -44.9
-171.5 -237 -44.9
-171.5 -237 -44.9
-171.5 -237 -44.9
-171.5 -237 -44.9
-171.5 -237 -44.9
-171.5 -237 -44.9
-171.5 -237 -44.9
-171.5 -237 -44.9
-171.5 -237 -44.9
-171.5 -237 -44.9
-171.5 -237 -44.9
-171.5 -237 -44.9
-171.5 -237 -44.9
-171.5 -237 -44.9
-171.5 -237 -44.9
-171.5 -237 -44.9
-171.5 -237 -44.9
-171.5 -237 -44.9
-171.5 -237 -44.9
-171.5 -237 -44.9
-171.5 -237 -44.9
-171.5 -237 -44.9
-171.5 -237 -44.9
-171.5 -237 -44.9
-171.5 -237 -44.9
-171.5 -237 -44.9
-171.5 -237 -44.9
-171.5 -237 -44.9
-171.5 -237 -44.9
-171.5 -237 -44.9
-171.5 -237 -44.9
-171.5 -237 -44.9
-171.5 -237 -44.9
-171.5 -237 -44.9
-171.5 -237 -44.9
-171.5 -237 -44.9
-171.5 -237 -44.9
-171.5 -237 -44.9
-171.5 -237 -44.9
-171.5 -237 -44.9
-171.5 -237 -44.9
-171.5 -237 -44.9
-171.5 -237 -44.9
-171.5 -237 -44.9
-171.5 -237 -44.9
-171.5 -237 -44.9
-171.5 -237 -44.9
-171.5 -237 -44.9
-171.5 -237 -44.9
-171.5 -237 -44.9
-171.5 -237 -44.9
-171.5 -237 -44.9
-171.5 -237 -44.9
-171.5 -237 -44.9
-171.5 -237 -44.9
-171.5 -237 -44.9
-171.5 -237 -44.9
-171.5 -237 -44.9
-171.5 -237 -44.9
-171.5 -237 -44.9
-171.5 -237 -44.9
-171.5 -237 -44.9
-171.5 -237 -44.9
-171.5 -237 -44.9
-171.5 -237 -44.9
-171.5 -237 -44.9
-171.5 -237 -44.9
-171.5 -237 -44.9
-171.5 -237 -44.9
-171.5 -237 -44.9
-171.5 -237 -44.9
-171.5 -237 -44.9
-171.5 -237 -44.9
-171.5 -237 -44.9
