ply
format ascii 1.0
element vertex 73
property float x
property float y
property float z
end_header
-0.5 3 -163.2
2 3 -164.8
-4 0.5 -165.3
-2.5 1 -168.4
0.5 3 -170.9
1.5 6 -172.8
7.5 13.5 -173.2
7.5 18 -173.7
5.5 27.5 -171.8
-8 50.5 -172.3
-11.5 51 0
-9.5 96 0
-5.5 105 0
2 115 -171.8
9 113 -166.9
12 108.5 -166.4
15.5 91.5 -168.4
16.5 80 -168.9
16 51 -168.9
9.5 17.5 79.6
4.5 0.5 -165.8
-11 -32.5 99.6
-21 -47.5 99.6
-32 -60.5 114.35
-54.5 -79 122.2
-72 -84.5 138.95
-75 -77.5 138.95
-71 -68.5 138.95
-52.5 -41 130.4
-21.5 -5.5 99.6
11.5 52.5 -185.4
18 122.5 -187.3
5.5 169.5 0
-5 188.5 0
-88.5 193 0
-123 136 0
-133.5 66 0
-115.5 6.5 157.3
-77.5 -31 138.95
-55.5 -40.5 130.4
-21 -36 106.85
3.5 -17.5 -187.7
12 -7 -183.1
20 10.5 -179
18 22 0
14.5 25 -167.4
5.5 22 -161.5
-4.5 8.5 99.6
-16 -11.5 99.6
-32 -31.5 114.35
-50 -49.5 122.2
-68.5 -64.5 138.95
-78.5 -71.5 138.95
-99 -83 147.95
-118 -91.5 177.5
-127 -94.5 188.35
-142 -100 199.75
-154 -98 224.45
-154.5 -99 224.45
-149 -108 211.75
-98.5 -91 138.95
-67.5 -70.5 130.4
-53.5 -57.5 106.85
-29 -29.5 106.85
-19 -13.5 99.6
-4 17 -163.2
3.5 42.5 -169.4
5.5 52 -169.9
6 62.5 -171.8
3.5 63.5 -171.8
-2 56 -169.4
-10.5 46.5 0
-19 38.5 99.6
